<?xml version="1.0" encoding="utf-8"?>
<svg xmlns="http://www.w3.org/2000/svg" xmlns:xlink="http://www.w3.org/1999/xlink" width="600" height="400" viewBox="0 0 2400 1600">
<defs>
  <clipPath id="clip960">
    <rect x="0" y="0" width="2400" height="1600"/>
  </clipPath>
</defs>
<path clip-path="url(#clip960)" d="
M0 1600 L2400 1600 L2400 0 L0 0  Z
  " fill="#ffffff" fill-rule="evenodd" fill-opacity="1"/>
<defs>
  <clipPath id="clip961">
    <rect x="480" y="0" width="1681" height="1600"/>
  </clipPath>
</defs>
<path clip-path="url(#clip960)" d="
M47.2441 1552.76 L2352.76 1552.76 L2352.76 47.2441 L47.2441 47.2441  Z
  " fill="#ffffff" fill-rule="evenodd" fill-opacity="1"/>
<defs>
  <clipPath id="clip962">
    <rect x="47" y="47" width="2307" height="1507"/>
  </clipPath>
</defs>
<polyline clip-path="url(#clip962)" style="stroke:#000000; stroke-linecap:butt; stroke-linejoin:round; stroke-width:4; stroke-opacity:1; fill:none" points="
  239.37,105.148 2160.63,105.148 
  "/>
<polyline clip-path="url(#clip962)" style="stroke:#000000; stroke-linecap:butt; stroke-linejoin:round; stroke-width:4; stroke-opacity:1; fill:none" points="
  239.37,134.101 239.37,76.1962 
  "/>
<polyline clip-path="url(#clip962)" style="stroke:#000000; stroke-linecap:butt; stroke-linejoin:round; stroke-width:4; stroke-opacity:1; fill:none" points="
  719.685,119.624 719.685,90.6723 
  "/>
<polyline clip-path="url(#clip962)" style="stroke:#000000; stroke-linecap:butt; stroke-linejoin:round; stroke-width:4; stroke-opacity:1; fill:none" points="
  1200,134.101 1200,76.1962 
  "/>
<polyline clip-path="url(#clip962)" style="stroke:#000000; stroke-linecap:butt; stroke-linejoin:round; stroke-width:4; stroke-opacity:1; fill:none" points="
  1680.31,119.624 1680.31,90.6723 
  "/>
<polyline clip-path="url(#clip962)" style="stroke:#000000; stroke-linecap:butt; stroke-linejoin:round; stroke-width:4; stroke-opacity:1; fill:none" points="
  2160.63,134.101 2160.63,76.1962 
  "/>
<circle clip-path="url(#clip962)" cx="239.37" cy="105.148" r="14" fill="#e26f46" fill-rule="evenodd" fill-opacity="1" stroke="#000000" stroke-opacity="1" stroke-width="3.2"/>
<circle clip-path="url(#clip962)" cx="2160.63" cy="105.148" r="14" fill="#e26f46" fill-rule="evenodd" fill-opacity="1" stroke="#000000" stroke-opacity="1" stroke-width="3.2"/>
<polyline clip-path="url(#clip962)" style="stroke:#000000; stroke-linecap:butt; stroke-linejoin:round; stroke-width:4; stroke-opacity:1; fill:none" points="
  239.37,278.861 2160.63,278.861 
  "/>
<polyline clip-path="url(#clip962)" style="stroke:#000000; stroke-linecap:butt; stroke-linejoin:round; stroke-width:4; stroke-opacity:1; fill:none" points="
  239.37,307.813 239.37,249.909 
  "/>
<polyline clip-path="url(#clip962)" style="stroke:#000000; stroke-linecap:butt; stroke-linejoin:round; stroke-width:4; stroke-opacity:1; fill:none" points="
  719.685,293.337 719.685,264.385 
  "/>
<polyline clip-path="url(#clip962)" style="stroke:#000000; stroke-linecap:butt; stroke-linejoin:round; stroke-width:4; stroke-opacity:1; fill:none" points="
  1200,307.813 1200,249.909 
  "/>
<polyline clip-path="url(#clip962)" style="stroke:#000000; stroke-linecap:butt; stroke-linejoin:round; stroke-width:4; stroke-opacity:1; fill:none" points="
  1680.31,293.337 1680.31,264.385 
  "/>
<polyline clip-path="url(#clip962)" style="stroke:#000000; stroke-linecap:butt; stroke-linejoin:round; stroke-width:4; stroke-opacity:1; fill:none" points="
  2160.63,307.813 2160.63,249.909 
  "/>
<circle clip-path="url(#clip962)" cx="1103.94" cy="278.861" r="14" fill="#e26f46" fill-rule="evenodd" fill-opacity="1" stroke="#000000" stroke-opacity="1" stroke-width="3.2"/>
<circle clip-path="url(#clip962)" cx="1632.28" cy="278.861" r="14" fill="#e26f46" fill-rule="evenodd" fill-opacity="1" stroke="#000000" stroke-opacity="1" stroke-width="3.2"/>
<polyline clip-path="url(#clip962)" style="stroke:#e26f46; stroke-linecap:butt; stroke-linejoin:round; stroke-width:4; stroke-opacity:1; fill:none" stroke-dasharray="16, 10" points="
  239.37,105.148 1103.94,278.861 
  "/>
<polyline clip-path="url(#clip962)" style="stroke:#e26f46; stroke-linecap:butt; stroke-linejoin:round; stroke-width:4; stroke-opacity:1; fill:none" stroke-dasharray="16, 10" points="
  2160.63,105.148 1632.28,278.861 
  "/>
<polyline clip-path="url(#clip962)" style="stroke:#000000; stroke-linecap:butt; stroke-linejoin:round; stroke-width:4; stroke-opacity:1; fill:none" points="
  239.37,452.574 2160.63,452.574 
  "/>
<polyline clip-path="url(#clip962)" style="stroke:#000000; stroke-linecap:butt; stroke-linejoin:round; stroke-width:4; stroke-opacity:1; fill:none" points="
  239.37,481.526 239.37,423.622 
  "/>
<polyline clip-path="url(#clip962)" style="stroke:#000000; stroke-linecap:butt; stroke-linejoin:round; stroke-width:4; stroke-opacity:1; fill:none" points="
  719.685,467.05 719.685,438.098 
  "/>
<polyline clip-path="url(#clip962)" style="stroke:#000000; stroke-linecap:butt; stroke-linejoin:round; stroke-width:4; stroke-opacity:1; fill:none" points="
  1200,481.526 1200,423.622 
  "/>
<polyline clip-path="url(#clip962)" style="stroke:#000000; stroke-linecap:butt; stroke-linejoin:round; stroke-width:4; stroke-opacity:1; fill:none" points="
  1680.31,467.05 1680.31,438.098 
  "/>
<polyline clip-path="url(#clip962)" style="stroke:#000000; stroke-linecap:butt; stroke-linejoin:round; stroke-width:4; stroke-opacity:1; fill:none" points="
  2160.63,481.526 2160.63,423.622 
  "/>
<circle clip-path="url(#clip962)" cx="1007.87" cy="452.574" r="14" fill="#e26f46" fill-rule="evenodd" fill-opacity="1" stroke="#000000" stroke-opacity="1" stroke-width="3.2"/>
<circle clip-path="url(#clip962)" cx="2064.57" cy="452.574" r="14" fill="#e26f46" fill-rule="evenodd" fill-opacity="1" stroke="#000000" stroke-opacity="1" stroke-width="3.2"/>
<polyline clip-path="url(#clip962)" style="stroke:#808080; stroke-linecap:butt; stroke-linejoin:round; stroke-width:4; stroke-opacity:1; fill:none" stroke-dasharray="16, 10" points="
  719.685,278.861 239.37,452.574 
  "/>
<polyline clip-path="url(#clip962)" style="stroke:#808080; stroke-linecap:butt; stroke-linejoin:round; stroke-width:4; stroke-opacity:1; fill:none" stroke-dasharray="16, 10" points="
  1680.31,278.861 2160.63,452.574 
  "/>
<polyline clip-path="url(#clip962)" style="stroke:#000000; stroke-linecap:butt; stroke-linejoin:round; stroke-width:4; stroke-opacity:1; fill:none" points="
  239.37,626.287 2160.63,626.287 
  "/>
<polyline clip-path="url(#clip962)" style="stroke:#000000; stroke-linecap:butt; stroke-linejoin:round; stroke-width:4; stroke-opacity:1; fill:none" points="
  239.37,655.239 239.37,597.335 
  "/>
<polyline clip-path="url(#clip962)" style="stroke:#000000; stroke-linecap:butt; stroke-linejoin:round; stroke-width:4; stroke-opacity:1; fill:none" points="
  719.685,640.763 719.685,611.811 
  "/>
<polyline clip-path="url(#clip962)" style="stroke:#000000; stroke-linecap:butt; stroke-linejoin:round; stroke-width:4; stroke-opacity:1; fill:none" points="
  1200,655.239 1200,597.335 
  "/>
<polyline clip-path="url(#clip962)" style="stroke:#000000; stroke-linecap:butt; stroke-linejoin:round; stroke-width:4; stroke-opacity:1; fill:none" points="
  1680.31,640.763 1680.31,611.811 
  "/>
<polyline clip-path="url(#clip962)" style="stroke:#000000; stroke-linecap:butt; stroke-linejoin:round; stroke-width:4; stroke-opacity:1; fill:none" points="
  2160.63,655.239 2160.63,597.335 
  "/>
<circle clip-path="url(#clip962)" cx="1007.87" cy="626.287" r="14" fill="#e26f46" fill-rule="evenodd" fill-opacity="1" stroke="#000000" stroke-opacity="1" stroke-width="3.2"/>
<circle clip-path="url(#clip962)" cx="1483.39" cy="626.287" r="14" fill="#e26f46" fill-rule="evenodd" fill-opacity="1" stroke="#000000" stroke-opacity="1" stroke-width="3.2"/>
<polyline clip-path="url(#clip962)" style="stroke:#e26f46; stroke-linecap:butt; stroke-linejoin:round; stroke-width:4; stroke-opacity:1; fill:none" stroke-dasharray="16, 10" points="
  1007.87,452.574 1007.87,626.287 
  "/>
<polyline clip-path="url(#clip962)" style="stroke:#e26f46; stroke-linecap:butt; stroke-linejoin:round; stroke-width:4; stroke-opacity:1; fill:none" stroke-dasharray="16, 10" points="
  2064.57,452.574 1483.39,626.287 
  "/>
<polyline clip-path="url(#clip962)" style="stroke:#000000; stroke-linecap:butt; stroke-linejoin:round; stroke-width:4; stroke-opacity:1; fill:none" points="
  239.37,800 2160.63,800 
  "/>
<polyline clip-path="url(#clip962)" style="stroke:#000000; stroke-linecap:butt; stroke-linejoin:round; stroke-width:4; stroke-opacity:1; fill:none" points="
  239.37,828.952 239.37,771.048 
  "/>
<polyline clip-path="url(#clip962)" style="stroke:#000000; stroke-linecap:butt; stroke-linejoin:round; stroke-width:4; stroke-opacity:1; fill:none" points="
  719.685,814.476 719.685,785.524 
  "/>
<polyline clip-path="url(#clip962)" style="stroke:#000000; stroke-linecap:butt; stroke-linejoin:round; stroke-width:4; stroke-opacity:1; fill:none" points="
  1200,828.952 1200,771.048 
  "/>
<polyline clip-path="url(#clip962)" style="stroke:#000000; stroke-linecap:butt; stroke-linejoin:round; stroke-width:4; stroke-opacity:1; fill:none" points="
  1680.31,814.476 1680.31,785.524 
  "/>
<polyline clip-path="url(#clip962)" style="stroke:#000000; stroke-linecap:butt; stroke-linejoin:round; stroke-width:4; stroke-opacity:1; fill:none" points="
  2160.63,828.952 2160.63,771.048 
  "/>
<circle clip-path="url(#clip962)" cx="815.748" cy="800" r="14" fill="#e26f46" fill-rule="evenodd" fill-opacity="1" stroke="#000000" stroke-opacity="1" stroke-width="3.2"/>
<circle clip-path="url(#clip962)" cx="1766.77" cy="800" r="14" fill="#e26f46" fill-rule="evenodd" fill-opacity="1" stroke="#000000" stroke-opacity="1" stroke-width="3.2"/>
<polyline clip-path="url(#clip962)" style="stroke:#808080; stroke-linecap:butt; stroke-linejoin:round; stroke-width:4; stroke-opacity:1; fill:none" stroke-dasharray="16, 10" points="
  719.685,626.287 239.37,800 
  "/>
<polyline clip-path="url(#clip962)" style="stroke:#808080; stroke-linecap:butt; stroke-linejoin:round; stroke-width:4; stroke-opacity:1; fill:none" stroke-dasharray="16, 10" points="
  1680.31,626.287 2160.63,800 
  "/>
<polyline clip-path="url(#clip962)" style="stroke:#000000; stroke-linecap:butt; stroke-linejoin:round; stroke-width:4; stroke-opacity:1; fill:none" points="
  239.37,973.713 2160.63,973.713 
  "/>
<polyline clip-path="url(#clip962)" style="stroke:#000000; stroke-linecap:butt; stroke-linejoin:round; stroke-width:4; stroke-opacity:1; fill:none" points="
  239.37,1002.67 239.37,944.761 
  "/>
<polyline clip-path="url(#clip962)" style="stroke:#000000; stroke-linecap:butt; stroke-linejoin:round; stroke-width:4; stroke-opacity:1; fill:none" points="
  719.685,988.189 719.685,959.237 
  "/>
<polyline clip-path="url(#clip962)" style="stroke:#000000; stroke-linecap:butt; stroke-linejoin:round; stroke-width:4; stroke-opacity:1; fill:none" points="
  1200,1002.67 1200,944.761 
  "/>
<polyline clip-path="url(#clip962)" style="stroke:#000000; stroke-linecap:butt; stroke-linejoin:round; stroke-width:4; stroke-opacity:1; fill:none" points="
  1680.31,988.189 1680.31,959.237 
  "/>
<polyline clip-path="url(#clip962)" style="stroke:#000000; stroke-linecap:butt; stroke-linejoin:round; stroke-width:4; stroke-opacity:1; fill:none" points="
  2160.63,1002.67 2160.63,944.761 
  "/>
<circle clip-path="url(#clip962)" cx="1505.24" cy="973.713" r="14" fill="#e26f46" fill-rule="evenodd" fill-opacity="1" stroke="#000000" stroke-opacity="1" stroke-width="3.2"/>
<circle clip-path="url(#clip962)" cx="1766.77" cy="973.713" r="14" fill="#e26f46" fill-rule="evenodd" fill-opacity="1" stroke="#000000" stroke-opacity="1" stroke-width="3.2"/>
<polyline clip-path="url(#clip962)" style="stroke:#e26f46; stroke-linecap:butt; stroke-linejoin:round; stroke-width:4; stroke-opacity:1; fill:none" stroke-dasharray="16, 10" points="
  815.748,800 1505.24,973.713 
  "/>
<polyline clip-path="url(#clip962)" style="stroke:#e26f46; stroke-linecap:butt; stroke-linejoin:round; stroke-width:4; stroke-opacity:1; fill:none" stroke-dasharray="16, 10" points="
  1766.77,800 1766.77,973.713 
  "/>
<polyline clip-path="url(#clip962)" style="stroke:#000000; stroke-linecap:butt; stroke-linejoin:round; stroke-width:4; stroke-opacity:1; fill:none" points="
  239.37,1147.43 2160.63,1147.43 
  "/>
<polyline clip-path="url(#clip962)" style="stroke:#000000; stroke-linecap:butt; stroke-linejoin:round; stroke-width:4; stroke-opacity:1; fill:none" points="
  239.37,1176.38 239.37,1118.47 
  "/>
<polyline clip-path="url(#clip962)" style="stroke:#000000; stroke-linecap:butt; stroke-linejoin:round; stroke-width:4; stroke-opacity:1; fill:none" points="
  719.685,1161.9 719.685,1132.95 
  "/>
<polyline clip-path="url(#clip962)" style="stroke:#000000; stroke-linecap:butt; stroke-linejoin:round; stroke-width:4; stroke-opacity:1; fill:none" points="
  1200,1176.38 1200,1118.47 
  "/>
<polyline clip-path="url(#clip962)" style="stroke:#000000; stroke-linecap:butt; stroke-linejoin:round; stroke-width:4; stroke-opacity:1; fill:none" points="
  1680.31,1161.9 1680.31,1132.95 
  "/>
<polyline clip-path="url(#clip962)" style="stroke:#000000; stroke-linecap:butt; stroke-linejoin:round; stroke-width:4; stroke-opacity:1; fill:none" points="
  2160.63,1176.38 2160.63,1118.47 
  "/>
<circle clip-path="url(#clip962)" cx="849.85" cy="1147.43" r="14" fill="#e26f46" fill-rule="evenodd" fill-opacity="1" stroke="#000000" stroke-opacity="1" stroke-width="3.2"/>
<circle clip-path="url(#clip962)" cx="1372.91" cy="1147.43" r="14" fill="#e26f46" fill-rule="evenodd" fill-opacity="1" stroke="#000000" stroke-opacity="1" stroke-width="3.2"/>
<polyline clip-path="url(#clip962)" style="stroke:#808080; stroke-linecap:butt; stroke-linejoin:round; stroke-width:4; stroke-opacity:1; fill:none" stroke-dasharray="16, 10" points="
  1200,973.713 239.37,1147.43 
  "/>
<polyline clip-path="url(#clip962)" style="stroke:#808080; stroke-linecap:butt; stroke-linejoin:round; stroke-width:4; stroke-opacity:1; fill:none" stroke-dasharray="16, 10" points="
  2160.63,973.713 2160.63,1147.43 
  "/>
<polyline clip-path="url(#clip962)" style="stroke:#000000; stroke-linecap:butt; stroke-linejoin:round; stroke-width:4; stroke-opacity:1; fill:none" points="
  239.37,1321.14 2160.63,1321.14 
  "/>
<polyline clip-path="url(#clip962)" style="stroke:#000000; stroke-linecap:butt; stroke-linejoin:round; stroke-width:4; stroke-opacity:1; fill:none" points="
  239.37,1350.09 239.37,1292.19 
  "/>
<polyline clip-path="url(#clip962)" style="stroke:#000000; stroke-linecap:butt; stroke-linejoin:round; stroke-width:4; stroke-opacity:1; fill:none" points="
  719.685,1335.61 719.685,1306.66 
  "/>
<polyline clip-path="url(#clip962)" style="stroke:#000000; stroke-linecap:butt; stroke-linejoin:round; stroke-width:4; stroke-opacity:1; fill:none" points="
  1200,1350.09 1200,1292.19 
  "/>
<polyline clip-path="url(#clip962)" style="stroke:#000000; stroke-linecap:butt; stroke-linejoin:round; stroke-width:4; stroke-opacity:1; fill:none" points="
  1680.31,1335.61 1680.31,1306.66 
  "/>
<polyline clip-path="url(#clip962)" style="stroke:#000000; stroke-linecap:butt; stroke-linejoin:round; stroke-width:4; stroke-opacity:1; fill:none" points="
  2160.63,1350.09 2160.63,1292.19 
  "/>
<circle clip-path="url(#clip962)" cx="499.701" cy="1321.14" r="14" fill="#e26f46" fill-rule="evenodd" fill-opacity="1" stroke="#000000" stroke-opacity="1" stroke-width="3.2"/>
<circle clip-path="url(#clip962)" cx="1545.83" cy="1321.14" r="14" fill="#e26f46" fill-rule="evenodd" fill-opacity="1" stroke="#000000" stroke-opacity="1" stroke-width="3.2"/>
<polyline clip-path="url(#clip962)" style="stroke:#808080; stroke-linecap:butt; stroke-linejoin:round; stroke-width:4; stroke-opacity:1; fill:none" stroke-dasharray="16, 10" points="
  719.685,1147.43 239.37,1321.14 
  "/>
<polyline clip-path="url(#clip962)" style="stroke:#808080; stroke-linecap:butt; stroke-linejoin:round; stroke-width:4; stroke-opacity:1; fill:none" stroke-dasharray="16, 10" points="
  1680.31,1147.43 2160.63,1321.14 
  "/>
<path clip-path="url(#clip960)" d="M225.235 38.3683 Q222.978 38.3683 221.835 40.5963 Q220.707 42.8098 220.707 47.2658 Q220.707 51.7073 221.835 53.9353 Q222.978 56.1489 225.235 56.1489 Q227.507 56.1489 228.635 53.9353 Q229.778 51.7073 229.778 47.2658 Q229.778 42.8098 228.635 40.5963 Q227.507 38.3683 225.235 38.3683 M225.235 36.0535 Q228.867 36.0535 230.776 38.9325 Q232.701 41.7971 232.701 47.2658 Q232.701 52.72 230.776 55.5991 Q228.867 58.4637 225.235 58.4637 Q221.604 58.4637 219.68 55.5991 Q217.77 52.72 217.77 47.2658 Q217.77 41.7971 219.68 38.9325 Q221.604 36.0535 225.235 36.0535 Z" fill="#000000" fill-rule="evenodd" fill-opacity="1" /><path clip-path="url(#clip960)" d="M237.837 54.3693 L240.889 54.3693 L240.889 58.0441 L237.837 58.0441 L237.837 54.3693 Z" fill="#000000" fill-rule="evenodd" fill-opacity="1" /><path clip-path="url(#clip960)" d="M253.505 38.3683 Q251.248 38.3683 250.105 40.5963 Q248.977 42.8098 248.977 47.2658 Q248.977 51.7073 250.105 53.9353 Q251.248 56.1489 253.505 56.1489 Q255.776 56.1489 256.905 53.9353 Q258.048 51.7073 258.048 47.2658 Q258.048 42.8098 256.905 40.5963 Q255.776 38.3683 253.505 38.3683 M253.505 36.0535 Q257.136 36.0535 259.046 38.9325 Q260.97 41.7971 260.97 47.2658 Q260.97 52.72 259.046 55.5991 Q257.136 58.4637 253.505 58.4637 Q249.873 58.4637 247.949 55.5991 Q246.04 52.72 246.04 47.2658 Q246.04 41.7971 247.949 38.9325 Q249.873 36.0535 253.505 36.0535 Z" fill="#000000" fill-rule="evenodd" fill-opacity="1" /><path clip-path="url(#clip960)" d="M479.528 64.5165 Q477.271 64.5165 476.128 66.7445 Q474.999 68.958 474.999 73.414 Q474.999 77.8555 476.128 80.0835 Q477.271 82.2971 479.528 82.2971 Q481.799 82.2971 482.927 80.0835 Q484.07 77.8555 484.07 73.414 Q484.07 68.958 482.927 66.7445 Q481.799 64.5165 479.528 64.5165 M479.528 62.2017 Q483.159 62.2017 485.069 65.0807 Q486.993 67.9453 486.993 73.414 Q486.993 78.8683 485.069 81.7473 Q483.159 84.6119 479.528 84.6119 Q475.896 84.6119 473.972 81.7473 Q472.062 78.8683 472.062 73.414 Q472.062 67.9453 473.972 65.0807 Q475.896 62.2017 479.528 62.2017 Z" fill="#000000" fill-rule="evenodd" fill-opacity="1" /><path clip-path="url(#clip960)" d="M950.8 64.5165 Q948.543 64.5165 947.4 66.7445 Q946.272 68.958 946.272 73.414 Q946.272 77.8555 947.4 80.0835 Q948.543 82.2971 950.8 82.2971 Q953.072 82.2971 954.2 80.0835 Q955.343 77.8555 955.343 73.414 Q955.343 68.958 954.2 66.7445 Q953.072 64.5165 950.8 64.5165 M950.8 62.2017 Q954.432 62.2017 956.341 65.0807 Q958.266 67.9453 958.266 73.414 Q958.266 78.8683 956.341 81.7473 Q954.432 84.6119 950.8 84.6119 Q947.169 84.6119 945.245 81.7473 Q943.335 78.8683 943.335 73.414 Q943.335 67.9453 945.245 65.0807 Q947.169 62.2017 950.8 62.2017 Z" fill="#000000" fill-rule="evenodd" fill-opacity="1" /><path clip-path="url(#clip960)" d="M963.908 81.7328 L968.682 81.7328 L968.682 65.2543 L963.488 66.296 L963.488 63.634 L968.653 62.5923 L971.576 62.5923 L971.576 81.7328 L976.35 81.7328 L976.35 84.1923 L963.908 84.1923 L963.908 81.7328 Z" fill="#000000" fill-rule="evenodd" fill-opacity="1" /><path clip-path="url(#clip960)" d="M1434.15 81.7328 L1438.92 81.7328 L1438.92 65.2543 L1433.73 66.296 L1433.73 63.634 L1438.89 62.5923 L1441.81 62.5923 L1441.81 81.7328 L1446.59 81.7328 L1446.59 84.1923 L1434.15 84.1923 L1434.15 81.7328 Z" fill="#000000" fill-rule="evenodd" fill-opacity="1" /><path clip-path="url(#clip960)" d="M1905.04 81.7328 L1909.81 81.7328 L1909.81 65.2543 L1904.62 66.296 L1904.62 63.634 L1909.78 62.5923 L1912.7 62.5923 L1912.7 81.7328 L1917.48 81.7328 L1917.48 84.1923 L1905.04 84.1923 L1905.04 81.7328 Z" fill="#000000" fill-rule="evenodd" fill-opacity="1" /><path clip-path="url(#clip960)" d="M1923.89 81.7328 L1928.66 81.7328 L1928.66 65.2543 L1923.47 66.296 L1923.47 63.634 L1928.63 62.5923 L1931.55 62.5923 L1931.55 81.7328 L1936.33 81.7328 L1936.33 84.1923 L1923.89 84.1923 L1923.89 81.7328 Z" fill="#000000" fill-rule="evenodd" fill-opacity="1" /><path clip-path="url(#clip960)" d="M2140.1 55.5846 L2144.87 55.5846 L2144.87 39.1061 L2139.68 40.1478 L2139.68 37.4858 L2144.85 36.4441 L2147.77 36.4441 L2147.77 55.5846 L2152.54 55.5846 L2152.54 58.0441 L2140.1 58.0441 L2140.1 55.5846 Z" fill="#000000" fill-rule="evenodd" fill-opacity="1" /><path clip-path="url(#clip960)" d="M2158.45 54.3693 L2161.5 54.3693 L2161.5 58.0441 L2158.45 58.0441 L2158.45 54.3693 Z" fill="#000000" fill-rule="evenodd" fill-opacity="1" /><path clip-path="url(#clip960)" d="M2174.11 38.3683 Q2171.86 38.3683 2170.71 40.5963 Q2169.59 42.8098 2169.59 47.2658 Q2169.59 51.7073 2170.71 53.9353 Q2171.86 56.1489 2174.11 56.1489 Q2176.39 56.1489 2177.51 53.9353 Q2178.66 51.7073 2178.66 47.2658 Q2178.66 42.8098 2177.51 40.5963 Q2176.39 38.3683 2174.11 38.3683 M2174.11 36.0535 Q2177.74 36.0535 2179.65 38.9325 Q2181.58 41.7971 2181.58 47.2658 Q2181.58 52.72 2179.65 55.5991 Q2177.74 58.4637 2174.11 58.4637 Q2170.48 58.4637 2168.56 55.5991 Q2166.65 52.72 2166.65 47.2658 Q2166.65 41.7971 2168.56 38.9325 Q2170.48 36.0535 2174.11 36.0535 Z" fill="#000000" fill-rule="evenodd" fill-opacity="1" /><path clip-path="url(#clip960)" d="M174.195 181.205 L177.117 181.205 L177.117 190.334 L186.81 181.205 L190.572 181.205 L179.851 191.274 L191.339 202.805 L187.49 202.805 L177.117 192.403 L177.117 202.805 L174.195 202.805 L174.195 181.205 Z" fill="#000000" fill-rule="evenodd" fill-opacity="1" /><path clip-path="url(#clip960)" d="M225.235 212.081 Q222.978 212.081 221.835 214.309 Q220.707 216.523 220.707 220.979 Q220.707 225.42 221.835 227.648 Q222.978 229.862 225.235 229.862 Q227.507 229.862 228.635 227.648 Q229.778 225.42 229.778 220.979 Q229.778 216.523 228.635 214.309 Q227.507 212.081 225.235 212.081 M225.235 209.766 Q228.867 209.766 230.776 212.645 Q232.701 215.51 232.701 220.979 Q232.701 226.433 230.776 229.312 Q228.867 232.177 225.235 232.177 Q221.604 232.177 219.68 229.312 Q217.77 226.433 217.77 220.979 Q217.77 215.51 219.68 212.645 Q221.604 209.766 225.235 209.766 Z" fill="#000000" fill-rule="evenodd" fill-opacity="1" /><path clip-path="url(#clip960)" d="M237.837 228.082 L240.889 228.082 L240.889 231.757 L237.837 231.757 L237.837 228.082 Z" fill="#000000" fill-rule="evenodd" fill-opacity="1" /><path clip-path="url(#clip960)" d="M253.505 212.081 Q251.248 212.081 250.105 214.309 Q248.977 216.523 248.977 220.979 Q248.977 225.42 250.105 227.648 Q251.248 229.862 253.505 229.862 Q255.776 229.862 256.905 227.648 Q258.048 225.42 258.048 220.979 Q258.048 216.523 256.905 214.309 Q255.776 212.081 253.505 212.081 M253.505 209.766 Q257.136 209.766 259.046 212.645 Q260.97 215.51 260.97 220.979 Q260.97 226.433 259.046 229.312 Q257.136 232.177 253.505 232.177 Q249.873 232.177 247.949 229.312 Q246.04 226.433 246.04 220.979 Q246.04 215.51 247.949 212.645 Q249.873 209.766 253.505 209.766 Z" fill="#000000" fill-rule="evenodd" fill-opacity="1" /><path clip-path="url(#clip960)" d="M479.528 238.229 Q477.271 238.229 476.128 240.457 Q474.999 242.671 474.999 247.127 Q474.999 251.568 476.128 253.796 Q477.271 256.01 479.528 256.01 Q481.799 256.01 482.927 253.796 Q484.07 251.568 484.07 247.127 Q484.07 242.671 482.927 240.457 Q481.799 238.229 479.528 238.229 M479.528 235.915 Q483.159 235.915 485.069 238.794 Q486.993 241.658 486.993 247.127 Q486.993 252.581 485.069 255.46 Q483.159 258.325 479.528 258.325 Q475.896 258.325 473.972 255.46 Q472.062 252.581 472.062 247.127 Q472.062 241.658 473.972 238.794 Q475.896 235.915 479.528 235.915 Z" fill="#000000" fill-rule="evenodd" fill-opacity="1" /><path clip-path="url(#clip960)" d="M950.8 238.229 Q948.543 238.229 947.4 240.457 Q946.272 242.671 946.272 247.127 Q946.272 251.568 947.4 253.796 Q948.543 256.01 950.8 256.01 Q953.072 256.01 954.2 253.796 Q955.343 251.568 955.343 247.127 Q955.343 242.671 954.2 240.457 Q953.072 238.229 950.8 238.229 M950.8 235.915 Q954.432 235.915 956.341 238.794 Q958.266 241.658 958.266 247.127 Q958.266 252.581 956.341 255.46 Q954.432 258.325 950.8 258.325 Q947.169 258.325 945.245 255.46 Q943.335 252.581 943.335 247.127 Q943.335 241.658 945.245 238.794 Q947.169 235.915 950.8 235.915 Z" fill="#000000" fill-rule="evenodd" fill-opacity="1" /><path clip-path="url(#clip960)" d="M963.908 255.446 L968.682 255.446 L968.682 238.967 L963.488 240.009 L963.488 237.347 L968.653 236.305 L971.576 236.305 L971.576 255.446 L976.35 255.446 L976.35 257.905 L963.908 257.905 L963.908 255.446 Z" fill="#000000" fill-rule="evenodd" fill-opacity="1" /><path clip-path="url(#clip960)" d="M1434.15 255.446 L1438.92 255.446 L1438.92 238.967 L1433.73 240.009 L1433.73 237.347 L1438.89 236.305 L1441.81 236.305 L1441.81 255.446 L1446.59 255.446 L1446.59 257.905 L1434.15 257.905 L1434.15 255.446 Z" fill="#000000" fill-rule="evenodd" fill-opacity="1" /><path clip-path="url(#clip960)" d="M1905.04 255.446 L1909.81 255.446 L1909.81 238.967 L1904.62 240.009 L1904.62 237.347 L1909.78 236.305 L1912.7 236.305 L1912.7 255.446 L1917.48 255.446 L1917.48 257.905 L1905.04 257.905 L1905.04 255.446 Z" fill="#000000" fill-rule="evenodd" fill-opacity="1" /><path clip-path="url(#clip960)" d="M1923.89 255.446 L1928.66 255.446 L1928.66 238.967 L1923.47 240.009 L1923.47 237.347 L1928.63 236.305 L1931.55 236.305 L1931.55 255.446 L1936.33 255.446 L1936.33 257.905 L1923.89 257.905 L1923.89 255.446 Z" fill="#000000" fill-rule="evenodd" fill-opacity="1" /><path clip-path="url(#clip960)" d="M2140.1 229.298 L2144.87 229.298 L2144.87 212.819 L2139.68 213.861 L2139.68 211.199 L2144.85 210.157 L2147.77 210.157 L2147.77 229.298 L2152.54 229.298 L2152.54 231.757 L2140.1 231.757 L2140.1 229.298 Z" fill="#000000" fill-rule="evenodd" fill-opacity="1" /><path clip-path="url(#clip960)" d="M2158.45 228.082 L2161.5 228.082 L2161.5 231.757 L2158.45 231.757 L2158.45 228.082 Z" fill="#000000" fill-rule="evenodd" fill-opacity="1" /><path clip-path="url(#clip960)" d="M2174.11 212.081 Q2171.86 212.081 2170.71 214.309 Q2169.59 216.523 2169.59 220.979 Q2169.59 225.42 2170.71 227.648 Q2171.86 229.862 2174.11 229.862 Q2176.39 229.862 2177.51 227.648 Q2178.66 225.42 2178.66 220.979 Q2178.66 216.523 2177.51 214.309 Q2176.39 212.081 2174.11 212.081 M2174.11 209.766 Q2177.74 209.766 2179.65 212.645 Q2181.58 215.51 2181.58 220.979 Q2181.58 226.433 2179.65 229.312 Q2177.74 232.177 2174.11 232.177 Q2170.48 232.177 2168.56 229.312 Q2166.65 226.433 2166.65 220.979 Q2166.65 215.51 2168.56 212.645 Q2170.48 209.766 2174.11 209.766 Z" fill="#000000" fill-rule="evenodd" fill-opacity="1" /><path clip-path="url(#clip960)" d="M216.121 385.794 Q213.864 385.794 212.721 388.022 Q211.592 390.236 211.592 394.692 Q211.592 399.133 212.721 401.361 Q213.864 403.575 216.121 403.575 Q218.392 403.575 219.521 401.361 Q220.664 399.133 220.664 394.692 Q220.664 390.236 219.521 388.022 Q218.392 385.794 216.121 385.794 M216.121 383.479 Q219.752 383.479 221.662 386.358 Q223.586 389.223 223.586 394.692 Q223.586 400.146 221.662 403.025 Q219.752 405.889 216.121 405.889 Q212.489 405.889 210.565 403.025 Q208.656 400.146 208.656 394.692 Q208.656 389.223 210.565 386.358 Q212.489 383.479 216.121 383.479 Z" fill="#000000" fill-rule="evenodd" fill-opacity="1" /><path clip-path="url(#clip960)" d="M228.722 401.795 L231.775 401.795 L231.775 405.47 L228.722 405.47 L228.722 401.795 Z" fill="#000000" fill-rule="evenodd" fill-opacity="1" /><path clip-path="url(#clip960)" d="M240.658 403.01 L250.857 403.01 L250.857 405.47 L237.142 405.47 L237.142 403.01 Q238.806 401.289 241.67 398.395 Q244.549 395.487 245.287 394.648 Q246.691 393.071 247.24 391.986 Q247.805 390.887 247.805 389.831 Q247.805 388.109 246.589 387.024 Q245.389 385.939 243.45 385.939 Q242.076 385.939 240.542 386.416 Q239.023 386.894 237.287 387.863 L237.287 384.912 Q239.052 384.203 240.585 383.841 Q242.119 383.479 243.392 383.479 Q246.749 383.479 248.745 385.158 Q250.742 386.836 250.742 389.642 Q250.742 390.973 250.235 392.174 Q249.743 393.361 248.427 394.981 Q248.065 395.401 246.126 397.411 Q244.188 399.408 240.658 403.01 Z" fill="#000000" fill-rule="evenodd" fill-opacity="1" /><path clip-path="url(#clip960)" d="M257.02 383.87 L268.493 383.87 L268.493 386.329 L259.697 386.329 L259.697 391.624 Q260.334 391.407 260.97 391.306 Q261.607 391.19 262.243 391.19 Q265.86 391.19 267.972 393.173 Q270.085 395.155 270.085 398.54 Q270.085 402.027 267.914 403.965 Q265.744 405.889 261.795 405.889 Q260.435 405.889 259.017 405.658 Q257.614 405.426 256.109 404.964 L256.109 402.027 Q257.411 402.736 258.8 403.083 Q260.189 403.43 261.737 403.43 Q264.24 403.43 265.701 402.113 Q267.162 400.797 267.162 398.54 Q267.162 396.283 265.701 394.966 Q264.24 393.65 261.737 393.65 Q260.565 393.65 259.393 393.91 Q258.236 394.171 257.02 394.721 L257.02 383.87 Z" fill="#000000" fill-rule="evenodd" fill-opacity="1" /><path clip-path="url(#clip960)" d="M470.485 411.942 Q468.228 411.942 467.085 414.17 Q465.957 416.384 465.957 420.84 Q465.957 425.281 467.085 427.509 Q468.228 429.723 470.485 429.723 Q472.757 429.723 473.885 427.509 Q475.028 425.281 475.028 420.84 Q475.028 416.384 473.885 414.17 Q472.757 411.942 470.485 411.942 M470.485 409.627 Q474.117 409.627 476.026 412.507 Q477.951 415.371 477.951 420.84 Q477.951 426.294 476.026 429.173 Q474.117 432.038 470.485 432.038 Q466.854 432.038 464.93 429.173 Q463.02 426.294 463.02 420.84 Q463.02 415.371 464.93 412.507 Q466.854 409.627 470.485 409.627 Z" fill="#000000" fill-rule="evenodd" fill-opacity="1" /><path clip-path="url(#clip960)" d="M483.593 429.159 L488.367 429.159 L488.367 412.68 L483.173 413.722 L483.173 411.06 L488.338 410.018 L491.261 410.018 L491.261 429.159 L496.035 429.159 L496.035 431.618 L483.593 431.618 L483.593 429.159 Z" fill="#000000" fill-rule="evenodd" fill-opacity="1" /><path clip-path="url(#clip960)" d="M941.375 411.942 Q939.118 411.942 937.975 414.17 Q936.846 416.384 936.846 420.84 Q936.846 425.281 937.975 427.509 Q939.118 429.723 941.375 429.723 Q943.646 429.723 944.775 427.509 Q945.918 425.281 945.918 420.84 Q945.918 416.384 944.775 414.17 Q943.646 411.942 941.375 411.942 M941.375 409.627 Q945.006 409.627 946.916 412.507 Q948.84 415.371 948.84 420.84 Q948.84 426.294 946.916 429.173 Q945.006 432.038 941.375 432.038 Q937.743 432.038 935.819 429.173 Q933.909 426.294 933.909 420.84 Q933.909 415.371 935.819 412.507 Q937.743 409.627 941.375 409.627 Z" fill="#000000" fill-rule="evenodd" fill-opacity="1" /><path clip-path="url(#clip960)" d="M954.482 429.159 L959.257 429.159 L959.257 412.68 L954.063 413.722 L954.063 411.06 L959.228 410.018 L962.15 410.018 L962.15 429.159 L966.924 429.159 L966.924 431.618 L954.482 431.618 L954.482 429.159 Z" fill="#000000" fill-rule="evenodd" fill-opacity="1" /><path clip-path="url(#clip960)" d="M973.333 429.159 L978.108 429.159 L978.108 412.68 L972.914 413.722 L972.914 411.06 L978.079 410.018 L981.001 410.018 L981.001 429.159 L985.776 429.159 L985.776 431.618 L973.333 431.618 L973.333 429.159 Z" fill="#000000" fill-rule="evenodd" fill-opacity="1" /><path clip-path="url(#clip960)" d="M1434.15 429.159 L1438.92 429.159 L1438.92 412.68 L1433.73 413.722 L1433.73 411.06 L1438.89 410.018 L1441.81 410.018 L1441.81 429.159 L1446.59 429.159 L1446.59 431.618 L1434.15 431.618 L1434.15 429.159 Z" fill="#000000" fill-rule="evenodd" fill-opacity="1" /><path clip-path="url(#clip960)" d="M1895.61 429.159 L1900.38 429.159 L1900.38 412.68 L1895.19 413.722 L1895.19 411.06 L1900.36 410.018 L1903.28 410.018 L1903.28 429.159 L1908.05 429.159 L1908.05 431.618 L1895.61 431.618 L1895.61 429.159 Z" fill="#000000" fill-rule="evenodd" fill-opacity="1" /><path clip-path="url(#clip960)" d="M1920.2 411.942 Q1917.95 411.942 1916.8 414.17 Q1915.68 416.384 1915.68 420.84 Q1915.68 425.281 1916.8 427.509 Q1917.95 429.723 1920.2 429.723 Q1922.48 429.723 1923.6 427.509 Q1924.75 425.281 1924.75 420.84 Q1924.75 416.384 1923.6 414.17 Q1922.48 411.942 1920.2 411.942 M1920.2 409.627 Q1923.84 409.627 1925.75 412.507 Q1927.67 415.371 1927.67 420.84 Q1927.67 426.294 1925.75 429.173 Q1923.84 432.038 1920.2 432.038 Q1916.57 432.038 1914.65 429.173 Q1912.74 426.294 1912.74 420.84 Q1912.74 415.371 1914.65 412.507 Q1916.57 409.627 1920.2 409.627 Z" fill="#000000" fill-rule="evenodd" fill-opacity="1" /><path clip-path="url(#clip960)" d="M1933.31 429.159 L1938.09 429.159 L1938.09 412.68 L1932.89 413.722 L1932.89 411.06 L1938.06 410.018 L1940.98 410.018 L1940.98 429.159 L1945.75 429.159 L1945.75 431.618 L1933.31 431.618 L1933.31 429.159 Z" fill="#000000" fill-rule="evenodd" fill-opacity="1" /><path clip-path="url(#clip960)" d="M2137.38 385.794 Q2135.12 385.794 2133.98 388.022 Q2132.85 390.236 2132.85 394.692 Q2132.85 399.133 2133.98 401.361 Q2135.12 403.575 2137.38 403.575 Q2139.65 403.575 2140.78 401.361 Q2141.92 399.133 2141.92 394.692 Q2141.92 390.236 2140.78 388.022 Q2139.65 385.794 2137.38 385.794 M2137.38 383.479 Q2141.01 383.479 2142.92 386.358 Q2144.85 389.223 2144.85 394.692 Q2144.85 400.146 2142.92 403.025 Q2141.01 405.889 2137.38 405.889 Q2133.75 405.889 2131.83 403.025 Q2129.92 400.146 2129.92 394.692 Q2129.92 389.223 2131.83 386.358 Q2133.75 383.479 2137.38 383.479 Z" fill="#000000" fill-rule="evenodd" fill-opacity="1" /><path clip-path="url(#clip960)" d="M2149.98 401.795 L2153.03 401.795 L2153.03 405.47 L2149.98 405.47 L2149.98 401.795 Z" fill="#000000" fill-rule="evenodd" fill-opacity="1" /><path clip-path="url(#clip960)" d="M2158.66 383.87 L2172.55 383.87 L2172.55 385.114 L2164.71 405.47 L2161.66 405.47 L2169.04 386.329 L2158.66 386.329 L2158.66 383.87 Z" fill="#000000" fill-rule="evenodd" fill-opacity="1" /><path clip-path="url(#clip960)" d="M2178.28 383.87 L2189.75 383.87 L2189.75 386.329 L2180.96 386.329 L2180.96 391.624 Q2181.59 391.407 2182.23 391.306 Q2182.87 391.19 2183.5 391.19 Q2187.12 391.19 2189.23 393.173 Q2191.34 395.155 2191.34 398.54 Q2191.34 402.027 2189.17 403.965 Q2187 405.889 2183.05 405.889 Q2181.69 405.889 2180.28 405.658 Q2178.87 405.426 2177.37 404.964 L2177.37 402.027 Q2178.67 402.736 2180.06 403.083 Q2181.45 403.43 2183 403.43 Q2185.5 403.43 2186.96 402.113 Q2188.42 400.797 2188.42 398.54 Q2188.42 396.283 2186.96 394.966 Q2185.5 393.65 2183 393.65 Q2181.82 393.65 2180.65 393.91 Q2179.5 394.171 2178.28 394.721 L2178.28 383.87 Z" fill="#000000" fill-rule="evenodd" fill-opacity="1" /><path clip-path="url(#clip960)" d="M188.416 528.631 L191.339 528.631 L191.339 550.231 L188.416 550.231 L188.416 528.631 Z" fill="#000000" fill-rule="evenodd" fill-opacity="1" /><path clip-path="url(#clip960)" d="M216.121 559.507 Q213.864 559.507 212.721 561.735 Q211.592 563.949 211.592 568.404 Q211.592 572.846 212.721 575.074 Q213.864 577.288 216.121 577.288 Q218.392 577.288 219.521 575.074 Q220.664 572.846 220.664 568.404 Q220.664 563.949 219.521 561.735 Q218.392 559.507 216.121 559.507 M216.121 557.192 Q219.752 557.192 221.662 560.071 Q223.586 562.936 223.586 568.404 Q223.586 573.859 221.662 576.738 Q219.752 579.602 216.121 579.602 Q212.489 579.602 210.565 576.738 Q208.656 573.859 208.656 568.404 Q208.656 562.936 210.565 560.071 Q212.489 557.192 216.121 557.192 Z" fill="#000000" fill-rule="evenodd" fill-opacity="1" /><path clip-path="url(#clip960)" d="M228.722 575.508 L231.775 575.508 L231.775 579.183 L228.722 579.183 L228.722 575.508 Z" fill="#000000" fill-rule="evenodd" fill-opacity="1" /><path clip-path="url(#clip960)" d="M240.658 576.723 L250.857 576.723 L250.857 579.183 L237.142 579.183 L237.142 576.723 Q238.806 575.002 241.67 572.108 Q244.549 569.2 245.287 568.361 Q246.691 566.784 247.24 565.699 Q247.805 564.6 247.805 563.543 Q247.805 561.822 246.589 560.737 Q245.389 559.652 243.45 559.652 Q242.076 559.652 240.542 560.129 Q239.023 560.607 237.287 561.576 L237.287 558.624 Q239.052 557.916 240.585 557.554 Q242.119 557.192 243.392 557.192 Q246.749 557.192 248.745 558.87 Q250.742 560.549 250.742 563.355 Q250.742 564.686 250.235 565.887 Q249.743 567.073 248.427 568.694 Q248.065 569.113 246.126 571.124 Q244.188 573.121 240.658 576.723 Z" fill="#000000" fill-rule="evenodd" fill-opacity="1" /><path clip-path="url(#clip960)" d="M257.02 557.583 L268.493 557.583 L268.493 560.042 L259.697 560.042 L259.697 565.337 Q260.334 565.12 260.97 565.019 Q261.607 564.903 262.243 564.903 Q265.86 564.903 267.972 566.885 Q270.085 568.867 270.085 572.253 Q270.085 575.74 267.914 577.678 Q265.744 579.602 261.795 579.602 Q260.435 579.602 259.017 579.371 Q257.614 579.139 256.109 578.676 L256.109 575.74 Q257.411 576.448 258.8 576.796 Q260.189 577.143 261.737 577.143 Q264.24 577.143 265.701 575.826 Q267.162 574.51 267.162 572.253 Q267.162 569.996 265.701 568.679 Q264.24 567.363 261.737 567.363 Q260.565 567.363 259.393 567.623 Q258.236 567.884 257.02 568.433 L257.02 557.583 Z" fill="#000000" fill-rule="evenodd" fill-opacity="1" /><path clip-path="url(#clip960)" d="M470.485 585.655 Q468.228 585.655 467.085 587.883 Q465.957 590.097 465.957 594.553 Q465.957 598.994 467.085 601.222 Q468.228 603.436 470.485 603.436 Q472.757 603.436 473.885 601.222 Q475.028 598.994 475.028 594.553 Q475.028 590.097 473.885 587.883 Q472.757 585.655 470.485 585.655 M470.485 583.34 Q474.117 583.34 476.026 586.219 Q477.951 589.084 477.951 594.553 Q477.951 600.007 476.026 602.886 Q474.117 605.751 470.485 605.751 Q466.854 605.751 464.93 602.886 Q463.02 600.007 463.02 594.553 Q463.02 589.084 464.93 586.219 Q466.854 583.34 470.485 583.34 Z" fill="#000000" fill-rule="evenodd" fill-opacity="1" /><path clip-path="url(#clip960)" d="M483.593 602.872 L488.367 602.872 L488.367 586.393 L483.173 587.435 L483.173 584.773 L488.338 583.731 L491.261 583.731 L491.261 602.872 L496.035 602.872 L496.035 605.331 L483.593 605.331 L483.593 602.872 Z" fill="#000000" fill-rule="evenodd" fill-opacity="1" /><path clip-path="url(#clip960)" d="M941.375 585.655 Q939.118 585.655 937.975 587.883 Q936.846 590.097 936.846 594.553 Q936.846 598.994 937.975 601.222 Q939.118 603.436 941.375 603.436 Q943.646 603.436 944.775 601.222 Q945.918 598.994 945.918 594.553 Q945.918 590.097 944.775 587.883 Q943.646 585.655 941.375 585.655 M941.375 583.34 Q945.006 583.34 946.916 586.219 Q948.84 589.084 948.84 594.553 Q948.84 600.007 946.916 602.886 Q945.006 605.751 941.375 605.751 Q937.743 605.751 935.819 602.886 Q933.909 600.007 933.909 594.553 Q933.909 589.084 935.819 586.219 Q937.743 583.34 941.375 583.34 Z" fill="#000000" fill-rule="evenodd" fill-opacity="1" /><path clip-path="url(#clip960)" d="M954.482 602.872 L959.257 602.872 L959.257 586.393 L954.063 587.435 L954.063 584.773 L959.228 583.731 L962.15 583.731 L962.15 602.872 L966.924 602.872 L966.924 605.331 L954.482 605.331 L954.482 602.872 Z" fill="#000000" fill-rule="evenodd" fill-opacity="1" /><path clip-path="url(#clip960)" d="M973.333 602.872 L978.108 602.872 L978.108 586.393 L972.914 587.435 L972.914 584.773 L978.079 583.731 L981.001 583.731 L981.001 602.872 L985.776 602.872 L985.776 605.331 L973.333 605.331 L973.333 602.872 Z" fill="#000000" fill-rule="evenodd" fill-opacity="1" /><path clip-path="url(#clip960)" d="M1434.15 602.872 L1438.92 602.872 L1438.92 586.393 L1433.73 587.435 L1433.73 584.773 L1438.89 583.731 L1441.81 583.731 L1441.81 602.872 L1446.59 602.872 L1446.59 605.331 L1434.15 605.331 L1434.15 602.872 Z" fill="#000000" fill-rule="evenodd" fill-opacity="1" /><path clip-path="url(#clip960)" d="M1895.61 602.872 L1900.38 602.872 L1900.38 586.393 L1895.19 587.435 L1895.19 584.773 L1900.36 583.731 L1903.28 583.731 L1903.28 602.872 L1908.05 602.872 L1908.05 605.331 L1895.61 605.331 L1895.61 602.872 Z" fill="#000000" fill-rule="evenodd" fill-opacity="1" /><path clip-path="url(#clip960)" d="M1920.2 585.655 Q1917.95 585.655 1916.8 587.883 Q1915.68 590.097 1915.68 594.553 Q1915.68 598.994 1916.8 601.222 Q1917.95 603.436 1920.2 603.436 Q1922.48 603.436 1923.6 601.222 Q1924.75 598.994 1924.75 594.553 Q1924.75 590.097 1923.6 587.883 Q1922.48 585.655 1920.2 585.655 M1920.2 583.34 Q1923.84 583.34 1925.75 586.219 Q1927.67 589.084 1927.67 594.553 Q1927.67 600.007 1925.75 602.886 Q1923.84 605.751 1920.2 605.751 Q1916.57 605.751 1914.65 602.886 Q1912.74 600.007 1912.74 594.553 Q1912.74 589.084 1914.65 586.219 Q1916.57 583.34 1920.2 583.34 Z" fill="#000000" fill-rule="evenodd" fill-opacity="1" /><path clip-path="url(#clip960)" d="M1933.31 602.872 L1938.09 602.872 L1938.09 586.393 L1932.89 587.435 L1932.89 584.773 L1938.06 583.731 L1940.98 583.731 L1940.98 602.872 L1945.75 602.872 L1945.75 605.331 L1933.31 605.331 L1933.31 602.872 Z" fill="#000000" fill-rule="evenodd" fill-opacity="1" /><path clip-path="url(#clip960)" d="M2137.38 559.507 Q2135.12 559.507 2133.98 561.735 Q2132.85 563.949 2132.85 568.404 Q2132.85 572.846 2133.98 575.074 Q2135.12 577.288 2137.38 577.288 Q2139.65 577.288 2140.78 575.074 Q2141.92 572.846 2141.92 568.404 Q2141.92 563.949 2140.78 561.735 Q2139.65 559.507 2137.38 559.507 M2137.38 557.192 Q2141.01 557.192 2142.92 560.071 Q2144.85 562.936 2144.85 568.404 Q2144.85 573.859 2142.92 576.738 Q2141.01 579.602 2137.38 579.602 Q2133.75 579.602 2131.83 576.738 Q2129.92 573.859 2129.92 568.404 Q2129.92 562.936 2131.83 560.071 Q2133.75 557.192 2137.38 557.192 Z" fill="#000000" fill-rule="evenodd" fill-opacity="1" /><path clip-path="url(#clip960)" d="M2149.98 575.508 L2153.03 575.508 L2153.03 579.183 L2149.98 579.183 L2149.98 575.508 Z" fill="#000000" fill-rule="evenodd" fill-opacity="1" /><path clip-path="url(#clip960)" d="M2158.66 557.583 L2172.55 557.583 L2172.55 558.827 L2164.71 579.183 L2161.66 579.183 L2169.04 560.042 L2158.66 560.042 L2158.66 557.583 Z" fill="#000000" fill-rule="evenodd" fill-opacity="1" /><path clip-path="url(#clip960)" d="M2178.28 557.583 L2189.75 557.583 L2189.75 560.042 L2180.96 560.042 L2180.96 565.337 Q2181.59 565.12 2182.23 565.019 Q2182.87 564.903 2183.5 564.903 Q2187.12 564.903 2189.23 566.885 Q2191.34 568.867 2191.34 572.253 Q2191.34 575.74 2189.17 577.678 Q2187 579.602 2183.05 579.602 Q2181.69 579.602 2180.28 579.371 Q2178.87 579.139 2177.37 578.676 L2177.37 575.74 Q2178.67 576.448 2180.06 576.796 Q2181.45 577.143 2183 577.143 Q2185.5 577.143 2186.96 575.826 Q2188.42 574.51 2188.42 572.253 Q2188.42 569.996 2186.96 568.679 Q2185.5 567.363 2183 567.363 Q2181.82 567.363 2180.65 567.623 Q2179.5 567.884 2178.28 568.433 L2178.28 557.583 Z" fill="#000000" fill-rule="evenodd" fill-opacity="1" /><path clip-path="url(#clip960)" d="M206.695 733.22 Q204.438 733.22 203.295 735.448 Q202.167 737.661 202.167 742.117 Q202.167 746.559 203.295 748.787 Q204.438 751 206.695 751 Q208.967 751 210.095 748.787 Q211.238 746.559 211.238 742.117 Q211.238 737.661 210.095 735.448 Q208.967 733.22 206.695 733.22 M206.695 730.905 Q210.327 730.905 212.236 733.784 Q214.16 736.649 214.16 742.117 Q214.16 747.572 212.236 750.451 Q210.327 753.315 206.695 753.315 Q203.064 753.315 201.14 750.451 Q199.23 747.572 199.23 742.117 Q199.23 736.649 201.14 733.784 Q203.064 730.905 206.695 730.905 Z" fill="#000000" fill-rule="evenodd" fill-opacity="1" /><path clip-path="url(#clip960)" d="M219.296 749.221 L222.349 749.221 L222.349 752.896 L219.296 752.896 L219.296 749.221 Z" fill="#000000" fill-rule="evenodd" fill-opacity="1" /><path clip-path="url(#clip960)" d="M237.569 741.249 Q239.667 741.698 240.839 743.116 Q242.025 744.533 242.025 746.617 Q242.025 749.814 239.826 751.565 Q237.627 753.315 233.576 753.315 Q232.216 753.315 230.769 753.04 Q229.337 752.78 227.803 752.245 L227.803 749.423 Q229.019 750.132 230.465 750.494 Q231.912 750.856 233.489 750.856 Q236.238 750.856 237.67 749.771 Q239.117 748.686 239.117 746.617 Q239.117 744.707 237.771 743.636 Q236.44 742.551 234.053 742.551 L231.536 742.551 L231.536 740.15 L234.169 740.15 Q236.325 740.15 237.468 739.296 Q238.611 738.428 238.611 736.808 Q238.611 735.144 237.424 734.262 Q236.252 733.365 234.053 733.365 Q232.852 733.365 231.478 733.625 Q230.104 733.885 228.454 734.435 L228.454 731.831 Q230.118 731.368 231.565 731.137 Q233.026 730.905 234.314 730.905 Q237.641 730.905 239.58 732.424 Q241.519 733.929 241.519 736.504 Q241.519 738.298 240.491 739.542 Q239.464 740.772 237.569 741.249 Z" fill="#000000" fill-rule="evenodd" fill-opacity="1" /><path clip-path="url(#clip960)" d="M246.828 731.296 L260.717 731.296 L260.717 732.54 L252.876 752.896 L249.823 752.896 L257.201 733.755 L246.828 733.755 L246.828 731.296 Z" fill="#000000" fill-rule="evenodd" fill-opacity="1" /><path clip-path="url(#clip960)" d="M266.446 731.296 L277.919 731.296 L277.919 733.755 L269.123 733.755 L269.123 739.05 Q269.759 738.833 270.396 738.732 Q271.032 738.616 271.669 738.616 Q275.286 738.616 277.398 740.598 Q279.51 742.58 279.51 745.966 Q279.51 749.452 277.34 751.391 Q275.17 753.315 271.22 753.315 Q269.86 753.315 268.443 753.084 Q267.039 752.852 265.535 752.389 L265.535 749.452 Q266.837 750.161 268.226 750.509 Q269.614 750.856 271.162 750.856 Q273.665 750.856 275.127 749.539 Q276.588 748.223 276.588 745.966 Q276.588 743.709 275.127 742.392 Q273.665 741.076 271.162 741.076 Q269.991 741.076 268.819 741.336 Q267.661 741.597 266.446 742.146 L266.446 731.296 Z" fill="#000000" fill-rule="evenodd" fill-opacity="1" /><path clip-path="url(#clip960)" d="M461.06 759.368 Q458.803 759.368 457.66 761.596 Q456.531 763.81 456.531 768.266 Q456.531 772.707 457.66 774.935 Q458.803 777.149 461.06 777.149 Q463.331 777.149 464.46 774.935 Q465.603 772.707 465.603 768.266 Q465.603 763.81 464.46 761.596 Q463.331 759.368 461.06 759.368 M461.06 757.053 Q464.691 757.053 466.601 759.932 Q468.525 762.797 468.525 768.266 Q468.525 773.72 466.601 776.599 Q464.691 779.463 461.06 779.463 Q457.428 779.463 455.504 776.599 Q453.595 773.72 453.595 768.266 Q453.595 762.797 455.504 759.932 Q457.428 757.053 461.06 757.053 Z" fill="#000000" fill-rule="evenodd" fill-opacity="1" /><path clip-path="url(#clip960)" d="M474.167 776.584 L478.942 776.584 L478.942 760.106 L473.748 761.148 L473.748 758.486 L478.913 757.444 L481.835 757.444 L481.835 776.584 L486.609 776.584 L486.609 779.044 L474.167 779.044 L474.167 776.584 Z" fill="#000000" fill-rule="evenodd" fill-opacity="1" /><path clip-path="url(#clip960)" d="M493.019 776.584 L497.793 776.584 L497.793 760.106 L492.599 761.148 L492.599 758.486 L497.764 757.444 L500.686 757.444 L500.686 776.584 L505.461 776.584 L505.461 779.044 L493.019 779.044 L493.019 776.584 Z" fill="#000000" fill-rule="evenodd" fill-opacity="1" /><path clip-path="url(#clip960)" d="M931.949 759.368 Q929.692 759.368 928.549 761.596 Q927.421 763.81 927.421 768.266 Q927.421 772.707 928.549 774.935 Q929.692 777.149 931.949 777.149 Q934.221 777.149 935.349 774.935 Q936.492 772.707 936.492 768.266 Q936.492 763.81 935.349 761.596 Q934.221 759.368 931.949 759.368 M931.949 757.053 Q935.58 757.053 937.49 759.932 Q939.414 762.797 939.414 768.266 Q939.414 773.72 937.49 776.599 Q935.58 779.463 931.949 779.463 Q928.318 779.463 926.394 776.599 Q924.484 773.72 924.484 768.266 Q924.484 762.797 926.394 759.932 Q928.318 757.053 931.949 757.053 Z" fill="#000000" fill-rule="evenodd" fill-opacity="1" /><path clip-path="url(#clip960)" d="M945.057 776.584 L949.831 776.584 L949.831 760.106 L944.637 761.148 L944.637 758.486 L949.802 757.444 L952.725 757.444 L952.725 776.584 L957.499 776.584 L957.499 779.044 L945.057 779.044 L945.057 776.584 Z" fill="#000000" fill-rule="evenodd" fill-opacity="1" /><path clip-path="url(#clip960)" d="M963.908 776.584 L968.682 776.584 L968.682 760.106 L963.488 761.148 L963.488 758.486 L968.653 757.444 L971.576 757.444 L971.576 776.584 L976.35 776.584 L976.35 779.044 L963.908 779.044 L963.908 776.584 Z" fill="#000000" fill-rule="evenodd" fill-opacity="1" /><path clip-path="url(#clip960)" d="M982.759 776.584 L987.533 776.584 L987.533 760.106 L982.34 761.148 L982.34 758.486 L987.504 757.444 L990.427 757.444 L990.427 776.584 L995.201 776.584 L995.201 779.044 L982.759 779.044 L982.759 776.584 Z" fill="#000000" fill-rule="evenodd" fill-opacity="1" /><path clip-path="url(#clip960)" d="M1434.15 776.584 L1438.92 776.584 L1438.92 760.106 L1433.73 761.148 L1433.73 758.486 L1438.89 757.444 L1441.81 757.444 L1441.81 776.584 L1446.59 776.584 L1446.59 779.044 L1434.15 779.044 L1434.15 776.584 Z" fill="#000000" fill-rule="evenodd" fill-opacity="1" /><path clip-path="url(#clip960)" d="M1886.18 776.584 L1890.96 776.584 L1890.96 760.106 L1885.76 761.148 L1885.76 758.486 L1890.93 757.444 L1893.85 757.444 L1893.85 776.584 L1898.63 776.584 L1898.63 779.044 L1886.18 779.044 L1886.18 776.584 Z" fill="#000000" fill-rule="evenodd" fill-opacity="1" /><path clip-path="url(#clip960)" d="M1910.78 759.368 Q1908.52 759.368 1907.38 761.596 Q1906.25 763.81 1906.25 768.266 Q1906.25 772.707 1907.38 774.935 Q1908.52 777.149 1910.78 777.149 Q1913.05 777.149 1914.18 774.935 Q1915.32 772.707 1915.32 768.266 Q1915.32 763.81 1914.18 761.596 Q1913.05 759.368 1910.78 759.368 M1910.78 757.053 Q1914.41 757.053 1916.32 759.932 Q1918.24 762.797 1918.24 768.266 Q1918.24 773.72 1916.32 776.599 Q1914.41 779.463 1910.78 779.463 Q1907.15 779.463 1905.22 776.599 Q1903.31 773.72 1903.31 768.266 Q1903.31 762.797 1905.22 759.932 Q1907.15 757.053 1910.78 757.053 Z" fill="#000000" fill-rule="evenodd" fill-opacity="1" /><path clip-path="url(#clip960)" d="M1929.63 759.368 Q1927.37 759.368 1926.23 761.596 Q1925.1 763.81 1925.1 768.266 Q1925.1 772.707 1926.23 774.935 Q1927.37 777.149 1929.63 777.149 Q1931.9 777.149 1933.03 774.935 Q1934.17 772.707 1934.17 768.266 Q1934.17 763.81 1933.03 761.596 Q1931.9 759.368 1929.63 759.368 M1929.63 757.053 Q1933.26 757.053 1935.17 759.932 Q1937.1 762.797 1937.1 768.266 Q1937.1 773.72 1935.17 776.599 Q1933.26 779.463 1929.63 779.463 Q1926 779.463 1924.07 776.599 Q1922.17 773.72 1922.17 768.266 Q1922.17 762.797 1924.07 759.932 Q1926 757.053 1929.63 757.053 Z" fill="#000000" fill-rule="evenodd" fill-opacity="1" /><path clip-path="url(#clip960)" d="M1942.74 776.584 L1947.51 776.584 L1947.51 760.106 L1942.32 761.148 L1942.32 758.486 L1947.48 757.444 L1950.41 757.444 L1950.41 776.584 L1955.18 776.584 L1955.18 779.044 L1942.74 779.044 L1942.74 776.584 Z" fill="#000000" fill-rule="evenodd" fill-opacity="1" /><path clip-path="url(#clip960)" d="M2127.96 733.22 Q2125.7 733.22 2124.56 735.448 Q2123.43 737.661 2123.43 742.117 Q2123.43 746.559 2124.56 748.787 Q2125.7 751 2127.96 751 Q2130.23 751 2131.35 748.787 Q2132.5 746.559 2132.5 742.117 Q2132.5 737.661 2131.35 735.448 Q2130.23 733.22 2127.96 733.22 M2127.96 730.905 Q2131.59 730.905 2133.5 733.784 Q2135.42 736.649 2135.42 742.117 Q2135.42 747.572 2133.5 750.451 Q2131.59 753.315 2127.96 753.315 Q2124.32 753.315 2122.4 750.451 Q2120.49 747.572 2120.49 742.117 Q2120.49 736.649 2122.4 733.784 Q2124.32 730.905 2127.96 730.905 Z" fill="#000000" fill-rule="evenodd" fill-opacity="1" /><path clip-path="url(#clip960)" d="M2140.56 749.221 L2143.61 749.221 L2143.61 752.896 L2140.56 752.896 L2140.56 749.221 Z" fill="#000000" fill-rule="evenodd" fill-opacity="1" /><path clip-path="url(#clip960)" d="M2156.59 740.931 Q2154.62 740.931 2153.46 742.277 Q2152.32 743.622 2152.32 745.966 Q2152.32 748.295 2153.46 749.655 Q2154.62 751 2156.59 751 Q2158.55 751 2159.7 749.655 Q2160.85 748.295 2160.85 745.966 Q2160.85 743.622 2159.7 742.277 Q2158.55 740.931 2156.59 740.931 M2162.39 731.773 L2162.39 734.435 Q2161.29 733.914 2160.16 733.639 Q2159.05 733.365 2157.95 733.365 Q2155.05 733.365 2153.52 735.318 Q2152 737.271 2151.78 741.22 Q2152.64 739.962 2153.92 739.296 Q2155.21 738.616 2156.76 738.616 Q2160.02 738.616 2161.9 740.598 Q2163.79 742.566 2163.79 745.966 Q2163.79 749.293 2161.82 751.304 Q2159.86 753.315 2156.59 753.315 Q2152.84 753.315 2150.86 750.451 Q2148.88 747.572 2148.88 742.117 Q2148.88 736.996 2151.31 733.958 Q2153.74 730.905 2157.83 730.905 Q2158.93 730.905 2160.04 731.122 Q2161.17 731.339 2162.39 731.773 Z" fill="#000000" fill-rule="evenodd" fill-opacity="1" /><path clip-path="url(#clip960)" d="M2171.34 750.436 L2181.54 750.436 L2181.54 752.896 L2167.83 752.896 L2167.83 750.436 Q2169.49 748.715 2172.36 745.821 Q2175.23 742.913 2175.97 742.074 Q2177.38 740.497 2177.93 739.412 Q2178.49 738.312 2178.49 737.256 Q2178.49 735.535 2177.27 734.45 Q2176.07 733.365 2174.14 733.365 Q2172.76 733.365 2171.23 733.842 Q2169.71 734.319 2167.97 735.289 L2167.97 732.337 Q2169.74 731.628 2171.27 731.267 Q2172.8 730.905 2174.08 730.905 Q2177.43 730.905 2179.43 732.583 Q2181.43 734.262 2181.43 737.068 Q2181.43 738.399 2180.92 739.6 Q2180.43 740.786 2179.11 742.407 Q2178.75 742.826 2176.81 744.837 Q2174.87 746.834 2171.34 750.436 Z" fill="#000000" fill-rule="evenodd" fill-opacity="1" /><path clip-path="url(#clip960)" d="M2187.71 731.296 L2199.18 731.296 L2199.18 733.755 L2190.38 733.755 L2190.38 739.05 Q2191.02 738.833 2191.66 738.732 Q2192.29 738.616 2192.93 738.616 Q2196.55 738.616 2198.66 740.598 Q2200.77 742.58 2200.77 745.966 Q2200.77 749.452 2198.6 751.391 Q2196.43 753.315 2192.48 753.315 Q2191.12 753.315 2189.7 753.084 Q2188.3 752.852 2186.79 752.389 L2186.79 749.452 Q2188.1 750.161 2189.49 750.509 Q2190.87 750.856 2192.42 750.856 Q2194.93 750.856 2196.39 749.539 Q2197.85 748.223 2197.85 745.966 Q2197.85 743.709 2196.39 742.392 Q2194.93 741.076 2192.42 741.076 Q2191.25 741.076 2190.08 741.336 Q2188.92 741.597 2187.71 742.146 L2187.71 731.296 Z" fill="#000000" fill-rule="evenodd" fill-opacity="1" /><path clip-path="url(#clip960)" d="M163.995 876.056 L166.946 876.056 L171.489 894.314 L176.017 876.056 L179.302 876.056 L183.844 894.314 L188.373 876.056 L191.339 876.056 L185.913 897.656 L182.239 897.656 L177.681 878.907 L173.081 897.656 L169.406 897.656 L163.995 876.056 Z" fill="#000000" fill-rule="evenodd" fill-opacity="1" /><path clip-path="url(#clip960)" d="M206.695 906.933 Q204.438 906.933 203.295 909.161 Q202.167 911.374 202.167 915.83 Q202.167 920.272 203.295 922.5 Q204.438 924.713 206.695 924.713 Q208.967 924.713 210.095 922.5 Q211.238 920.272 211.238 915.83 Q211.238 911.374 210.095 909.161 Q208.967 906.933 206.695 906.933 M206.695 904.618 Q210.327 904.618 212.236 907.497 Q214.16 910.362 214.16 915.83 Q214.16 921.285 212.236 924.164 Q210.327 927.028 206.695 927.028 Q203.064 927.028 201.14 924.164 Q199.23 921.285 199.23 915.83 Q199.23 910.362 201.14 907.497 Q203.064 904.618 206.695 904.618 Z" fill="#000000" fill-rule="evenodd" fill-opacity="1" /><path clip-path="url(#clip960)" d="M219.296 922.934 L222.349 922.934 L222.349 926.609 L219.296 926.609 L219.296 922.934 Z" fill="#000000" fill-rule="evenodd" fill-opacity="1" /><path clip-path="url(#clip960)" d="M237.569 914.962 Q239.667 915.411 240.839 916.829 Q242.025 918.246 242.025 920.33 Q242.025 923.527 239.826 925.278 Q237.627 927.028 233.576 927.028 Q232.216 927.028 230.769 926.753 Q229.337 926.493 227.803 925.958 L227.803 923.136 Q229.019 923.845 230.465 924.207 Q231.912 924.569 233.489 924.569 Q236.238 924.569 237.67 923.484 Q239.117 922.399 239.117 920.33 Q239.117 918.42 237.771 917.349 Q236.44 916.264 234.053 916.264 L231.536 916.264 L231.536 913.863 L234.169 913.863 Q236.325 913.863 237.468 913.009 Q238.611 912.141 238.611 910.521 Q238.611 908.857 237.424 907.974 Q236.252 907.077 234.053 907.077 Q232.852 907.077 231.478 907.338 Q230.104 907.598 228.454 908.148 L228.454 905.544 Q230.118 905.081 231.565 904.849 Q233.026 904.618 234.314 904.618 Q237.641 904.618 239.58 906.137 Q241.519 907.642 241.519 910.217 Q241.519 912.011 240.491 913.255 Q239.464 914.485 237.569 914.962 Z" fill="#000000" fill-rule="evenodd" fill-opacity="1" /><path clip-path="url(#clip960)" d="M246.828 905.009 L260.717 905.009 L260.717 906.253 L252.876 926.609 L249.823 926.609 L257.201 907.468 L246.828 907.468 L246.828 905.009 Z" fill="#000000" fill-rule="evenodd" fill-opacity="1" /><path clip-path="url(#clip960)" d="M266.446 905.009 L277.919 905.009 L277.919 907.468 L269.123 907.468 L269.123 912.763 Q269.759 912.546 270.396 912.445 Q271.032 912.329 271.669 912.329 Q275.286 912.329 277.398 914.311 Q279.51 916.293 279.51 919.679 Q279.51 923.165 277.34 925.104 Q275.17 927.028 271.22 927.028 Q269.86 927.028 268.443 926.797 Q267.039 926.565 265.535 926.102 L265.535 923.165 Q266.837 923.874 268.226 924.221 Q269.614 924.569 271.162 924.569 Q273.665 924.569 275.127 923.252 Q276.588 921.936 276.588 919.679 Q276.588 917.422 275.127 916.105 Q273.665 914.789 271.162 914.789 Q269.991 914.789 268.819 915.049 Q267.661 915.309 266.446 915.859 L266.446 905.009 Z" fill="#000000" fill-rule="evenodd" fill-opacity="1" /><path clip-path="url(#clip960)" d="M461.06 933.081 Q458.803 933.081 457.66 935.309 Q456.531 937.523 456.531 941.979 Q456.531 946.42 457.66 948.648 Q458.803 950.862 461.06 950.862 Q463.331 950.862 464.46 948.648 Q465.603 946.42 465.603 941.979 Q465.603 937.523 464.46 935.309 Q463.331 933.081 461.06 933.081 M461.06 930.766 Q464.691 930.766 466.601 933.645 Q468.525 936.51 468.525 941.979 Q468.525 947.433 466.601 950.312 Q464.691 953.176 461.06 953.176 Q457.428 953.176 455.504 950.312 Q453.595 947.433 453.595 941.979 Q453.595 936.51 455.504 933.645 Q457.428 930.766 461.06 930.766 Z" fill="#000000" fill-rule="evenodd" fill-opacity="1" /><path clip-path="url(#clip960)" d="M474.167 950.297 L478.942 950.297 L478.942 933.819 L473.748 934.861 L473.748 932.198 L478.913 931.157 L481.835 931.157 L481.835 950.297 L486.609 950.297 L486.609 952.757 L474.167 952.757 L474.167 950.297 Z" fill="#000000" fill-rule="evenodd" fill-opacity="1" /><path clip-path="url(#clip960)" d="M493.019 950.297 L497.793 950.297 L497.793 933.819 L492.599 934.861 L492.599 932.198 L497.764 931.157 L500.686 931.157 L500.686 950.297 L505.461 950.297 L505.461 952.757 L493.019 952.757 L493.019 950.297 Z" fill="#000000" fill-rule="evenodd" fill-opacity="1" /><path clip-path="url(#clip960)" d="M931.949 933.081 Q929.692 933.081 928.549 935.309 Q927.421 937.523 927.421 941.979 Q927.421 946.42 928.549 948.648 Q929.692 950.862 931.949 950.862 Q934.221 950.862 935.349 948.648 Q936.492 946.42 936.492 941.979 Q936.492 937.523 935.349 935.309 Q934.221 933.081 931.949 933.081 M931.949 930.766 Q935.58 930.766 937.49 933.645 Q939.414 936.51 939.414 941.979 Q939.414 947.433 937.49 950.312 Q935.58 953.176 931.949 953.176 Q928.318 953.176 926.394 950.312 Q924.484 947.433 924.484 941.979 Q924.484 936.51 926.394 933.645 Q928.318 930.766 931.949 930.766 Z" fill="#000000" fill-rule="evenodd" fill-opacity="1" /><path clip-path="url(#clip960)" d="M945.057 950.297 L949.831 950.297 L949.831 933.819 L944.637 934.861 L944.637 932.198 L949.802 931.157 L952.725 931.157 L952.725 950.297 L957.499 950.297 L957.499 952.757 L945.057 952.757 L945.057 950.297 Z" fill="#000000" fill-rule="evenodd" fill-opacity="1" /><path clip-path="url(#clip960)" d="M963.908 950.297 L968.682 950.297 L968.682 933.819 L963.488 934.861 L963.488 932.198 L968.653 931.157 L971.576 931.157 L971.576 950.297 L976.35 950.297 L976.35 952.757 L963.908 952.757 L963.908 950.297 Z" fill="#000000" fill-rule="evenodd" fill-opacity="1" /><path clip-path="url(#clip960)" d="M982.759 950.297 L987.533 950.297 L987.533 933.819 L982.34 934.861 L982.34 932.198 L987.504 931.157 L990.427 931.157 L990.427 950.297 L995.201 950.297 L995.201 952.757 L982.759 952.757 L982.759 950.297 Z" fill="#000000" fill-rule="evenodd" fill-opacity="1" /><path clip-path="url(#clip960)" d="M1434.15 950.297 L1438.92 950.297 L1438.92 933.819 L1433.73 934.861 L1433.73 932.198 L1438.89 931.157 L1441.81 931.157 L1441.81 950.297 L1446.59 950.297 L1446.59 952.757 L1434.15 952.757 L1434.15 950.297 Z" fill="#000000" fill-rule="evenodd" fill-opacity="1" /><path clip-path="url(#clip960)" d="M1886.18 950.297 L1890.96 950.297 L1890.96 933.819 L1885.76 934.861 L1885.76 932.198 L1890.93 931.157 L1893.85 931.157 L1893.85 950.297 L1898.63 950.297 L1898.63 952.757 L1886.18 952.757 L1886.18 950.297 Z" fill="#000000" fill-rule="evenodd" fill-opacity="1" /><path clip-path="url(#clip960)" d="M1910.78 933.081 Q1908.52 933.081 1907.38 935.309 Q1906.25 937.523 1906.25 941.979 Q1906.25 946.42 1907.38 948.648 Q1908.52 950.862 1910.78 950.862 Q1913.05 950.862 1914.18 948.648 Q1915.32 946.42 1915.32 941.979 Q1915.32 937.523 1914.18 935.309 Q1913.05 933.081 1910.78 933.081 M1910.78 930.766 Q1914.41 930.766 1916.32 933.645 Q1918.24 936.51 1918.24 941.979 Q1918.24 947.433 1916.32 950.312 Q1914.41 953.176 1910.78 953.176 Q1907.15 953.176 1905.22 950.312 Q1903.31 947.433 1903.31 941.979 Q1903.31 936.51 1905.22 933.645 Q1907.15 930.766 1910.78 930.766 Z" fill="#000000" fill-rule="evenodd" fill-opacity="1" /><path clip-path="url(#clip960)" d="M1929.63 933.081 Q1927.37 933.081 1926.23 935.309 Q1925.1 937.523 1925.1 941.979 Q1925.1 946.42 1926.23 948.648 Q1927.37 950.862 1929.63 950.862 Q1931.9 950.862 1933.03 948.648 Q1934.17 946.42 1934.17 941.979 Q1934.17 937.523 1933.03 935.309 Q1931.9 933.081 1929.63 933.081 M1929.63 930.766 Q1933.26 930.766 1935.17 933.645 Q1937.1 936.51 1937.1 941.979 Q1937.1 947.433 1935.17 950.312 Q1933.26 953.176 1929.63 953.176 Q1926 953.176 1924.07 950.312 Q1922.17 947.433 1922.17 941.979 Q1922.17 936.51 1924.07 933.645 Q1926 930.766 1929.63 930.766 Z" fill="#000000" fill-rule="evenodd" fill-opacity="1" /><path clip-path="url(#clip960)" d="M1942.74 950.297 L1947.51 950.297 L1947.51 933.819 L1942.32 934.861 L1942.32 932.198 L1947.48 931.157 L1950.41 931.157 L1950.41 950.297 L1955.18 950.297 L1955.18 952.757 L1942.74 952.757 L1942.74 950.297 Z" fill="#000000" fill-rule="evenodd" fill-opacity="1" /><path clip-path="url(#clip960)" d="M2127.96 906.933 Q2125.7 906.933 2124.56 909.161 Q2123.43 911.374 2123.43 915.83 Q2123.43 920.272 2124.56 922.5 Q2125.7 924.713 2127.96 924.713 Q2130.23 924.713 2131.35 922.5 Q2132.5 920.272 2132.5 915.83 Q2132.5 911.374 2131.35 909.161 Q2130.23 906.933 2127.96 906.933 M2127.96 904.618 Q2131.59 904.618 2133.5 907.497 Q2135.42 910.362 2135.42 915.83 Q2135.42 921.285 2133.5 924.164 Q2131.59 927.028 2127.96 927.028 Q2124.32 927.028 2122.4 924.164 Q2120.49 921.285 2120.49 915.83 Q2120.49 910.362 2122.4 907.497 Q2124.32 904.618 2127.96 904.618 Z" fill="#000000" fill-rule="evenodd" fill-opacity="1" /><path clip-path="url(#clip960)" d="M2140.56 922.934 L2143.61 922.934 L2143.61 926.609 L2140.56 926.609 L2140.56 922.934 Z" fill="#000000" fill-rule="evenodd" fill-opacity="1" /><path clip-path="url(#clip960)" d="M2156.59 914.644 Q2154.62 914.644 2153.46 915.989 Q2152.32 917.335 2152.32 919.679 Q2152.32 922.008 2153.46 923.368 Q2154.62 924.713 2156.59 924.713 Q2158.55 924.713 2159.7 923.368 Q2160.85 922.008 2160.85 919.679 Q2160.85 917.335 2159.7 915.989 Q2158.55 914.644 2156.59 914.644 M2162.39 905.486 L2162.39 908.148 Q2161.29 907.627 2160.16 907.352 Q2159.05 907.077 2157.95 907.077 Q2155.05 907.077 2153.52 909.031 Q2152 910.984 2151.78 914.933 Q2152.64 913.675 2153.92 913.009 Q2155.21 912.329 2156.76 912.329 Q2160.02 912.329 2161.9 914.311 Q2163.79 916.279 2163.79 919.679 Q2163.79 923.006 2161.82 925.017 Q2159.86 927.028 2156.59 927.028 Q2152.84 927.028 2150.86 924.164 Q2148.88 921.285 2148.88 915.83 Q2148.88 910.709 2151.31 907.671 Q2153.74 904.618 2157.83 904.618 Q2158.93 904.618 2160.04 904.835 Q2161.17 905.052 2162.39 905.486 Z" fill="#000000" fill-rule="evenodd" fill-opacity="1" /><path clip-path="url(#clip960)" d="M2171.34 924.149 L2181.54 924.149 L2181.54 926.609 L2167.83 926.609 L2167.83 924.149 Q2169.49 922.427 2172.36 919.534 Q2175.23 916.626 2175.97 915.787 Q2177.38 914.21 2177.93 913.125 Q2178.49 912.025 2178.49 910.969 Q2178.49 909.248 2177.27 908.163 Q2176.07 907.077 2174.14 907.077 Q2172.76 907.077 2171.23 907.555 Q2169.71 908.032 2167.97 909.002 L2167.97 906.05 Q2169.74 905.341 2171.27 904.98 Q2172.8 904.618 2174.08 904.618 Q2177.43 904.618 2179.43 906.296 Q2181.43 907.974 2181.43 910.781 Q2181.43 912.112 2180.92 913.313 Q2180.43 914.499 2179.11 916.12 Q2178.75 916.539 2176.81 918.55 Q2174.87 920.547 2171.34 924.149 Z" fill="#000000" fill-rule="evenodd" fill-opacity="1" /><path clip-path="url(#clip960)" d="M2187.71 905.009 L2199.18 905.009 L2199.18 907.468 L2190.38 907.468 L2190.38 912.763 Q2191.02 912.546 2191.66 912.445 Q2192.29 912.329 2192.93 912.329 Q2196.55 912.329 2198.66 914.311 Q2200.77 916.293 2200.77 919.679 Q2200.77 923.165 2198.6 925.104 Q2196.43 927.028 2192.48 927.028 Q2191.12 927.028 2189.7 926.797 Q2188.3 926.565 2186.79 926.102 L2186.79 923.165 Q2188.1 923.874 2189.49 924.221 Q2190.87 924.569 2192.42 924.569 Q2194.93 924.569 2196.39 923.252 Q2197.85 921.936 2197.85 919.679 Q2197.85 917.422 2196.39 916.105 Q2194.93 914.789 2192.42 914.789 Q2191.25 914.789 2190.08 915.049 Q2188.92 915.309 2187.71 915.859 L2187.71 905.009 Z" fill="#000000" fill-rule="evenodd" fill-opacity="1" /><path clip-path="url(#clip960)" d="M225.546 1080.65 Q223.289 1080.65 222.147 1082.87 Q221.018 1085.09 221.018 1089.54 Q221.018 1093.98 222.147 1096.21 Q223.289 1098.43 225.546 1098.43 Q227.818 1098.43 228.946 1096.21 Q230.089 1093.98 230.089 1089.54 Q230.089 1085.09 228.946 1082.87 Q227.818 1080.65 225.546 1080.65 M225.546 1078.33 Q229.178 1078.33 231.087 1081.21 Q233.012 1084.07 233.012 1089.54 Q233.012 1095 231.087 1097.88 Q229.178 1100.74 225.546 1100.74 Q221.915 1100.74 219.991 1097.88 Q218.081 1095 218.081 1089.54 Q218.081 1084.07 219.991 1081.21 Q221.915 1078.33 225.546 1078.33 Z" fill="#000000" fill-rule="evenodd" fill-opacity="1" /><path clip-path="url(#clip960)" d="M238.148 1096.65 L241.2 1096.65 L241.2 1100.32 L238.148 1100.32 L238.148 1096.65 Z" fill="#000000" fill-rule="evenodd" fill-opacity="1" /><path clip-path="url(#clip960)" d="M247.595 1078.72 L259.068 1078.72 L259.068 1081.18 L250.271 1081.18 L250.271 1086.48 Q250.908 1086.26 251.544 1086.16 Q252.181 1086.04 252.818 1086.04 Q256.435 1086.04 258.547 1088.02 Q260.659 1090.01 260.659 1093.39 Q260.659 1096.88 258.489 1098.82 Q256.319 1100.74 252.369 1100.74 Q251.009 1100.74 249.591 1100.51 Q248.188 1100.28 246.683 1099.82 L246.683 1096.88 Q247.985 1097.59 249.374 1097.93 Q250.763 1098.28 252.311 1098.28 Q254.814 1098.28 256.275 1096.97 Q257.737 1095.65 257.737 1093.39 Q257.737 1091.13 256.275 1089.82 Q254.814 1088.5 252.311 1088.5 Q251.139 1088.5 249.968 1088.76 Q248.81 1089.02 247.595 1089.57 L247.595 1078.72 Z" fill="#000000" fill-rule="evenodd" fill-opacity="1" /><path clip-path="url(#clip960)" d="M473.516 1124.01 L478.291 1124.01 L478.291 1107.53 L473.097 1108.57 L473.097 1105.91 L478.262 1104.87 L481.184 1104.87 L481.184 1124.01 L485.958 1124.01 L485.958 1126.47 L473.516 1126.47 L473.516 1124.01 Z" fill="#000000" fill-rule="evenodd" fill-opacity="1" /><path clip-path="url(#clip960)" d="M916.129 1124.01 L920.903 1124.01 L920.903 1107.53 L915.709 1108.57 L915.709 1105.91 L920.874 1104.87 L923.797 1104.87 L923.797 1124.01 L928.571 1124.01 L928.571 1126.47 L916.129 1126.47 L916.129 1124.01 Z" fill="#000000" fill-rule="evenodd" fill-opacity="1" /><path clip-path="url(#clip960)" d="M940.724 1106.79 Q938.467 1106.79 937.324 1109.02 Q936.195 1111.24 936.195 1115.69 Q936.195 1120.13 937.324 1122.36 Q938.467 1124.57 940.724 1124.57 Q942.995 1124.57 944.124 1122.36 Q945.266 1120.13 945.266 1115.69 Q945.266 1111.24 944.124 1109.02 Q942.995 1106.79 940.724 1106.79 M940.724 1104.48 Q944.355 1104.48 946.265 1107.36 Q948.189 1110.22 948.189 1115.69 Q948.189 1121.15 946.265 1124.02 Q944.355 1126.89 940.724 1126.89 Q937.092 1126.89 935.168 1124.02 Q933.258 1121.15 933.258 1115.69 Q933.258 1110.22 935.168 1107.36 Q937.092 1104.48 940.724 1104.48 Z" fill="#000000" fill-rule="evenodd" fill-opacity="1" /><path clip-path="url(#clip960)" d="M959.575 1106.79 Q957.318 1106.79 956.175 1109.02 Q955.047 1111.24 955.047 1115.69 Q955.047 1120.13 956.175 1122.36 Q957.318 1124.57 959.575 1124.57 Q961.846 1124.57 962.975 1122.36 Q964.118 1120.13 964.118 1115.69 Q964.118 1111.24 962.975 1109.02 Q961.846 1106.79 959.575 1106.79 M959.575 1104.48 Q963.206 1104.48 965.116 1107.36 Q967.04 1110.22 967.04 1115.69 Q967.04 1121.15 965.116 1124.02 Q963.206 1126.89 959.575 1126.89 Q955.944 1126.89 954.019 1124.02 Q952.11 1121.15 952.11 1115.69 Q952.11 1110.22 954.019 1107.36 Q955.944 1104.48 959.575 1104.48 Z" fill="#000000" fill-rule="evenodd" fill-opacity="1" /><path clip-path="url(#clip960)" d="M978.426 1106.79 Q976.169 1106.79 975.026 1109.02 Q973.898 1111.24 973.898 1115.69 Q973.898 1120.13 975.026 1122.36 Q976.169 1124.57 978.426 1124.57 Q980.697 1124.57 981.826 1122.36 Q982.969 1120.13 982.969 1115.69 Q982.969 1111.24 981.826 1109.02 Q980.697 1106.79 978.426 1106.79 M978.426 1104.48 Q982.057 1104.48 983.967 1107.36 Q985.891 1110.22 985.891 1115.69 Q985.891 1121.15 983.967 1124.02 Q982.057 1126.89 978.426 1126.89 Q974.795 1126.89 972.871 1124.02 Q970.961 1121.15 970.961 1115.69 Q970.961 1110.22 972.871 1107.36 Q974.795 1104.48 978.426 1104.48 Z" fill="#000000" fill-rule="evenodd" fill-opacity="1" /><path clip-path="url(#clip960)" d="M991.534 1124.01 L996.308 1124.01 L996.308 1107.53 L991.114 1108.57 L991.114 1105.91 L996.279 1104.87 L999.201 1104.87 L999.201 1124.01 L1003.98 1124.01 L1003.98 1126.47 L991.534 1126.47 L991.534 1124.01 Z" fill="#000000" fill-rule="evenodd" fill-opacity="1" /><path clip-path="url(#clip960)" d="M1405.87 1124.01 L1410.64 1124.01 L1410.64 1107.53 L1405.45 1108.57 L1405.45 1105.91 L1410.61 1104.87 L1413.54 1104.87 L1413.54 1124.01 L1418.31 1124.01 L1418.31 1126.47 L1405.87 1126.47 L1405.87 1124.01 Z" fill="#000000" fill-rule="evenodd" fill-opacity="1" /><path clip-path="url(#clip960)" d="M1430.46 1106.79 Q1428.21 1106.79 1427.06 1109.02 Q1425.94 1111.24 1425.94 1115.69 Q1425.94 1120.13 1427.06 1122.36 Q1428.21 1124.57 1430.46 1124.57 Q1432.74 1124.57 1433.86 1122.36 Q1435.01 1120.13 1435.01 1115.69 Q1435.01 1111.24 1433.86 1109.02 Q1432.74 1106.79 1430.46 1106.79 M1430.46 1104.48 Q1434.1 1104.48 1436.01 1107.36 Q1437.93 1110.22 1437.93 1115.69 Q1437.93 1121.15 1436.01 1124.02 Q1434.1 1126.89 1430.46 1126.89 Q1426.83 1126.89 1424.91 1124.02 Q1423 1121.15 1423 1115.69 Q1423 1110.22 1424.91 1107.36 Q1426.83 1104.48 1430.46 1104.48 Z" fill="#000000" fill-rule="evenodd" fill-opacity="1" /><path clip-path="url(#clip960)" d="M1449.32 1106.79 Q1447.06 1106.79 1445.92 1109.02 Q1444.79 1111.24 1444.79 1115.69 Q1444.79 1120.13 1445.92 1122.36 Q1447.06 1124.57 1449.32 1124.57 Q1451.59 1124.57 1452.72 1122.36 Q1453.86 1120.13 1453.86 1115.69 Q1453.86 1111.24 1452.72 1109.02 Q1451.59 1106.79 1449.32 1106.79 M1449.32 1104.48 Q1452.95 1104.48 1454.86 1107.36 Q1456.78 1110.22 1456.78 1115.69 Q1456.78 1121.15 1454.86 1124.02 Q1452.95 1126.89 1449.32 1126.89 Q1445.68 1126.89 1443.76 1124.02 Q1441.85 1121.15 1441.85 1115.69 Q1441.85 1110.22 1443.76 1107.36 Q1445.68 1104.48 1449.32 1104.48 Z" fill="#000000" fill-rule="evenodd" fill-opacity="1" /><path clip-path="url(#clip960)" d="M1462.42 1124.01 L1467.2 1124.01 L1467.2 1107.53 L1462 1108.57 L1462 1105.91 L1467.17 1104.87 L1470.09 1104.87 L1470.09 1124.01 L1474.87 1124.01 L1474.87 1126.47 L1462.42 1126.47 L1462.42 1124.01 Z" fill="#000000" fill-rule="evenodd" fill-opacity="1" /><path clip-path="url(#clip960)" d="M1876.76 1124.01 L1881.53 1124.01 L1881.53 1107.53 L1876.34 1108.57 L1876.34 1105.91 L1881.5 1104.87 L1884.43 1104.87 L1884.43 1124.01 L1889.2 1124.01 L1889.2 1126.47 L1876.76 1126.47 L1876.76 1124.01 Z" fill="#000000" fill-rule="evenodd" fill-opacity="1" /><path clip-path="url(#clip960)" d="M1901.35 1106.79 Q1899.1 1106.79 1897.95 1109.02 Q1896.83 1111.24 1896.83 1115.69 Q1896.83 1120.13 1897.95 1122.36 Q1899.1 1124.57 1901.35 1124.57 Q1903.63 1124.57 1904.75 1122.36 Q1905.9 1120.13 1905.9 1115.69 Q1905.9 1111.24 1904.75 1109.02 Q1903.63 1106.79 1901.35 1106.79 M1901.35 1104.48 Q1904.98 1104.48 1906.89 1107.36 Q1908.82 1110.22 1908.82 1115.69 Q1908.82 1121.15 1906.89 1124.02 Q1904.98 1126.89 1901.35 1126.89 Q1897.72 1126.89 1895.8 1124.02 Q1893.89 1121.15 1893.89 1115.69 Q1893.89 1110.22 1895.8 1107.36 Q1897.72 1104.48 1901.35 1104.48 Z" fill="#000000" fill-rule="evenodd" fill-opacity="1" /><path clip-path="url(#clip960)" d="M1920.2 1106.79 Q1917.95 1106.79 1916.8 1109.02 Q1915.68 1111.24 1915.68 1115.69 Q1915.68 1120.13 1916.8 1122.36 Q1917.95 1124.57 1920.2 1124.57 Q1922.48 1124.57 1923.6 1122.36 Q1924.75 1120.13 1924.75 1115.69 Q1924.75 1111.24 1923.6 1109.02 Q1922.48 1106.79 1920.2 1106.79 M1920.2 1104.48 Q1923.84 1104.48 1925.75 1107.36 Q1927.67 1110.22 1927.67 1115.69 Q1927.67 1121.15 1925.75 1124.02 Q1923.84 1126.89 1920.2 1126.89 Q1916.57 1126.89 1914.65 1124.02 Q1912.74 1121.15 1912.74 1115.69 Q1912.74 1110.22 1914.65 1107.36 Q1916.57 1104.48 1920.2 1104.48 Z" fill="#000000" fill-rule="evenodd" fill-opacity="1" /><path clip-path="url(#clip960)" d="M1933.31 1124.01 L1938.09 1124.01 L1938.09 1107.53 L1932.89 1108.57 L1932.89 1105.91 L1938.06 1104.87 L1940.98 1104.87 L1940.98 1124.01 L1945.75 1124.01 L1945.75 1126.47 L1933.31 1126.47 L1933.31 1124.01 Z" fill="#000000" fill-rule="evenodd" fill-opacity="1" /><path clip-path="url(#clip960)" d="M1952.16 1124.01 L1956.94 1124.01 L1956.94 1107.53 L1951.74 1108.57 L1951.74 1105.91 L1956.91 1104.87 L1959.83 1104.87 L1959.83 1124.01 L1964.61 1124.01 L1964.61 1126.47 L1952.16 1126.47 L1952.16 1124.01 Z" fill="#000000" fill-rule="evenodd" fill-opacity="1" /><path clip-path="url(#clip960)" d="M2127.96 1080.65 Q2125.7 1080.65 2124.56 1082.87 Q2123.43 1085.09 2123.43 1089.54 Q2123.43 1093.98 2124.56 1096.21 Q2125.7 1098.43 2127.96 1098.43 Q2130.23 1098.43 2131.35 1096.21 Q2132.5 1093.98 2132.5 1089.54 Q2132.5 1085.09 2131.35 1082.87 Q2130.23 1080.65 2127.96 1080.65 M2127.96 1078.33 Q2131.59 1078.33 2133.5 1081.21 Q2135.42 1084.07 2135.42 1089.54 Q2135.42 1095 2133.5 1097.88 Q2131.59 1100.74 2127.96 1100.74 Q2124.32 1100.74 2122.4 1097.88 Q2120.49 1095 2120.49 1089.54 Q2120.49 1084.07 2122.4 1081.21 Q2124.32 1078.33 2127.96 1078.33 Z" fill="#000000" fill-rule="evenodd" fill-opacity="1" /><path clip-path="url(#clip960)" d="M2140.56 1096.65 L2143.61 1096.65 L2143.61 1100.32 L2140.56 1100.32 L2140.56 1096.65 Z" fill="#000000" fill-rule="evenodd" fill-opacity="1" /><path clip-path="url(#clip960)" d="M2156.59 1088.36 Q2154.62 1088.36 2153.46 1089.7 Q2152.32 1091.05 2152.32 1093.39 Q2152.32 1095.72 2153.46 1097.08 Q2154.62 1098.43 2156.59 1098.43 Q2158.55 1098.43 2159.7 1097.08 Q2160.85 1095.72 2160.85 1093.39 Q2160.85 1091.05 2159.7 1089.7 Q2158.55 1088.36 2156.59 1088.36 M2162.39 1079.2 L2162.39 1081.86 Q2161.29 1081.34 2160.16 1081.07 Q2159.05 1080.79 2157.95 1080.79 Q2155.05 1080.79 2153.52 1082.74 Q2152 1084.7 2151.78 1088.65 Q2152.64 1087.39 2153.92 1086.72 Q2155.21 1086.04 2156.76 1086.04 Q2160.02 1086.04 2161.9 1088.02 Q2163.79 1089.99 2163.79 1093.39 Q2163.79 1096.72 2161.82 1098.73 Q2159.86 1100.74 2156.59 1100.74 Q2152.84 1100.74 2150.86 1097.88 Q2148.88 1095 2148.88 1089.54 Q2148.88 1084.42 2151.31 1081.38 Q2153.74 1078.33 2157.83 1078.33 Q2158.93 1078.33 2160.04 1078.55 Q2161.17 1078.76 2162.39 1079.2 Z" fill="#000000" fill-rule="evenodd" fill-opacity="1" /><path clip-path="url(#clip960)" d="M2171.34 1097.86 L2181.54 1097.86 L2181.54 1100.32 L2167.83 1100.32 L2167.83 1097.86 Q2169.49 1096.14 2172.36 1093.25 Q2175.23 1090.34 2175.97 1089.5 Q2177.38 1087.92 2177.93 1086.84 Q2178.49 1085.74 2178.49 1084.68 Q2178.49 1082.96 2177.27 1081.88 Q2176.07 1080.79 2174.14 1080.79 Q2172.76 1080.79 2171.23 1081.27 Q2169.71 1081.75 2167.97 1082.71 L2167.97 1079.76 Q2169.74 1079.05 2171.27 1078.69 Q2172.8 1078.33 2174.08 1078.33 Q2177.43 1078.33 2179.43 1080.01 Q2181.43 1081.69 2181.43 1084.49 Q2181.43 1085.83 2180.92 1087.03 Q2180.43 1088.21 2179.11 1089.83 Q2178.75 1090.25 2176.81 1092.26 Q2174.87 1094.26 2171.34 1097.86 Z" fill="#000000" fill-rule="evenodd" fill-opacity="1" /><path clip-path="url(#clip960)" d="M2187.71 1078.72 L2199.18 1078.72 L2199.18 1081.18 L2190.38 1081.18 L2190.38 1086.48 Q2191.02 1086.26 2191.66 1086.16 Q2192.29 1086.04 2192.93 1086.04 Q2196.55 1086.04 2198.66 1088.02 Q2200.77 1090.01 2200.77 1093.39 Q2200.77 1096.88 2198.6 1098.82 Q2196.43 1100.74 2192.48 1100.74 Q2191.12 1100.74 2189.7 1100.51 Q2188.3 1100.28 2186.79 1099.82 L2186.79 1096.88 Q2188.1 1097.59 2189.49 1097.93 Q2190.87 1098.28 2192.42 1098.28 Q2194.93 1098.28 2196.39 1096.97 Q2197.85 1095.65 2197.85 1093.39 Q2197.85 1091.13 2196.39 1089.82 Q2194.93 1088.5 2192.42 1088.5 Q2191.25 1088.5 2190.08 1088.76 Q2188.92 1089.02 2187.71 1089.57 L2187.71 1078.72 Z" fill="#000000" fill-rule="evenodd" fill-opacity="1" /><path clip-path="url(#clip960)" d="M2209.08 1068.91 L2213.86 1068.91 L2213.86 1052.43 L2208.66 1053.47 L2208.66 1050.81 L2213.83 1049.77 L2216.75 1049.77 L2216.75 1068.91 L2221.52 1068.91 L2221.52 1071.37 L2209.08 1071.37 L2209.08 1068.91 Z" fill="#000000" fill-rule="evenodd" fill-opacity="1" /><path clip-path="url(#clip960)" d="M2233.68 1051.69 Q2231.42 1051.69 2230.28 1053.92 Q2229.15 1056.14 2229.15 1060.59 Q2229.15 1065.03 2230.28 1067.26 Q2231.42 1069.47 2233.68 1069.47 Q2235.95 1069.47 2237.08 1067.26 Q2238.22 1065.03 2238.22 1060.59 Q2238.22 1056.14 2237.08 1053.92 Q2235.95 1051.69 2233.68 1051.69 M2233.68 1049.38 Q2237.31 1049.38 2239.22 1052.26 Q2241.14 1055.12 2241.14 1060.59 Q2241.14 1066.05 2239.22 1068.92 Q2237.31 1071.79 2233.68 1071.79 Q2230.04 1071.79 2228.12 1068.92 Q2226.21 1066.05 2226.21 1060.59 Q2226.21 1055.12 2228.12 1052.26 Q2230.04 1049.38 2233.68 1049.38 Z" fill="#000000" fill-rule="evenodd" fill-opacity="1" /><path clip-path="url(#clip960)" d="M2252.53 1051.69 Q2250.27 1051.69 2249.13 1053.92 Q2248 1056.14 2248 1060.59 Q2248 1065.03 2249.13 1067.26 Q2250.27 1069.47 2252.53 1069.47 Q2254.8 1069.47 2255.93 1067.26 Q2257.07 1065.03 2257.07 1060.59 Q2257.07 1056.14 2255.93 1053.92 Q2254.8 1051.69 2252.53 1051.69 M2252.53 1049.38 Q2256.16 1049.38 2258.07 1052.26 Q2259.99 1055.12 2259.99 1060.59 Q2259.99 1066.05 2258.07 1068.92 Q2256.16 1071.79 2252.53 1071.79 Q2248.9 1071.79 2246.97 1068.92 Q2245.06 1066.05 2245.06 1060.59 Q2245.06 1055.12 2246.97 1052.26 Q2248.9 1049.38 2252.53 1049.38 Z" fill="#000000" fill-rule="evenodd" fill-opacity="1" /><path clip-path="url(#clip960)" d="M187.844 1254.36 Q185.587 1254.36 184.444 1256.59 Q183.316 1258.8 183.316 1263.26 Q183.316 1267.7 184.444 1269.93 Q185.587 1272.14 187.844 1272.14 Q190.115 1272.14 191.244 1269.93 Q192.387 1267.7 192.387 1263.26 Q192.387 1258.8 191.244 1256.59 Q190.115 1254.36 187.844 1254.36 M187.844 1252.04 Q191.475 1252.04 193.385 1254.92 Q195.309 1257.79 195.309 1263.26 Q195.309 1268.71 193.385 1271.59 Q191.475 1274.45 187.844 1274.45 Q184.213 1274.45 182.288 1271.59 Q180.379 1268.71 180.379 1263.26 Q180.379 1257.79 182.288 1254.92 Q184.213 1252.04 187.844 1252.04 Z" fill="#000000" fill-rule="evenodd" fill-opacity="1" /><path clip-path="url(#clip960)" d="M200.445 1270.36 L203.498 1270.36 L203.498 1274.03 L200.445 1274.03 L200.445 1270.36 Z" fill="#000000" fill-rule="evenodd" fill-opacity="1" /><path clip-path="url(#clip960)" d="M209.893 1252.43 L221.365 1252.43 L221.365 1254.89 L212.569 1254.89 L212.569 1260.19 Q213.206 1259.97 213.842 1259.87 Q214.479 1259.75 215.115 1259.75 Q218.732 1259.75 220.844 1261.74 Q222.957 1263.72 222.957 1267.1 Q222.957 1270.59 220.787 1272.53 Q218.616 1274.45 214.667 1274.45 Q213.307 1274.45 211.889 1274.22 Q210.486 1273.99 208.981 1273.53 L208.981 1270.59 Q210.283 1271.3 211.672 1271.65 Q213.061 1271.99 214.609 1271.99 Q217.112 1271.99 218.573 1270.68 Q220.034 1269.36 220.034 1267.1 Q220.034 1264.85 218.573 1263.53 Q217.112 1262.21 214.609 1262.21 Q213.437 1262.21 212.265 1262.47 Q211.108 1262.74 209.893 1263.29 L209.893 1252.43 Z" fill="#000000" fill-rule="evenodd" fill-opacity="1" /><path clip-path="url(#clip960)" d="M237.569 1262.39 Q239.667 1262.84 240.839 1264.25 Q242.025 1265.67 242.025 1267.76 Q242.025 1270.95 239.826 1272.7 Q237.627 1274.45 233.576 1274.45 Q232.216 1274.45 230.769 1274.18 Q229.337 1273.92 227.803 1273.38 L227.803 1270.56 Q229.019 1271.27 230.465 1271.63 Q231.912 1271.99 233.489 1271.99 Q236.238 1271.99 237.67 1270.91 Q239.117 1269.82 239.117 1267.76 Q239.117 1265.85 237.771 1264.78 Q236.44 1263.69 234.053 1263.69 L231.536 1263.69 L231.536 1261.29 L234.169 1261.29 Q236.325 1261.29 237.468 1260.43 Q238.611 1259.57 238.611 1257.95 Q238.611 1256.28 237.424 1255.4 Q236.252 1254.5 234.053 1254.5 Q232.852 1254.5 231.478 1254.76 Q230.104 1255.02 228.454 1255.57 L228.454 1252.97 Q230.118 1252.51 231.565 1252.28 Q233.026 1252.04 234.314 1252.04 Q237.641 1252.04 239.58 1253.56 Q241.519 1255.07 241.519 1257.64 Q241.519 1259.44 240.491 1260.68 Q239.464 1261.91 237.569 1262.39 Z" fill="#000000" fill-rule="evenodd" fill-opacity="1" /><path clip-path="url(#clip960)" d="M248.072 1271.57 L252.847 1271.57 L252.847 1255.1 L247.653 1256.14 L247.653 1253.48 L252.818 1252.43 L255.74 1252.43 L255.74 1271.57 L260.514 1271.57 L260.514 1274.03 L248.072 1274.03 L248.072 1271.57 Z" fill="#000000" fill-rule="evenodd" fill-opacity="1" /><path clip-path="url(#clip960)" d="M268.934 1271.57 L279.134 1271.57 L279.134 1274.03 L265.419 1274.03 L265.419 1271.57 Q267.083 1269.85 269.947 1266.96 Q272.826 1264.05 273.564 1263.21 Q274.967 1261.64 275.517 1260.55 Q276.081 1259.45 276.081 1258.4 Q276.081 1256.67 274.866 1255.59 Q273.665 1254.5 271.727 1254.5 Q270.352 1254.5 268.819 1254.98 Q267.3 1255.46 265.564 1256.43 L265.564 1253.48 Q267.329 1252.77 268.862 1252.41 Q270.396 1252.04 271.669 1252.04 Q275.025 1252.04 277.022 1253.72 Q279.018 1255.4 279.018 1258.21 Q279.018 1259.54 278.512 1260.74 Q278.02 1261.93 276.704 1263.55 Q276.342 1263.97 274.403 1265.98 Q272.465 1267.97 268.934 1271.57 Z" fill="#000000" fill-rule="evenodd" fill-opacity="1" /><path clip-path="url(#clip960)" d="M285.297 1252.43 L296.77 1252.43 L296.77 1254.89 L287.974 1254.89 L287.974 1260.19 Q288.61 1259.97 289.247 1259.87 Q289.883 1259.75 290.52 1259.75 Q294.137 1259.75 296.249 1261.74 Q298.361 1263.72 298.361 1267.1 Q298.361 1270.59 296.191 1272.53 Q294.021 1274.45 290.071 1274.45 Q288.712 1274.45 287.294 1274.22 Q285.89 1273.99 284.386 1273.53 L284.386 1270.59 Q285.688 1271.3 287.077 1271.65 Q288.466 1271.99 290.014 1271.99 Q292.516 1271.99 293.978 1270.68 Q295.439 1269.36 295.439 1267.1 Q295.439 1264.85 293.978 1263.53 Q292.516 1262.21 290.014 1262.21 Q288.842 1262.21 287.67 1262.47 Q286.512 1262.74 285.297 1263.29 L285.297 1252.43 Z" fill="#000000" fill-rule="evenodd" fill-opacity="1" /><path clip-path="url(#clip960)" d="M435.814 1297.72 L440.588 1297.72 L440.588 1281.24 L435.394 1282.29 L435.394 1279.62 L440.559 1278.58 L443.482 1278.58 L443.482 1297.72 L448.256 1297.72 L448.256 1300.18 L435.814 1300.18 L435.814 1297.72 Z" fill="#000000" fill-rule="evenodd" fill-opacity="1" /><path clip-path="url(#clip960)" d="M460.409 1280.51 Q458.152 1280.51 457.009 1282.73 Q455.88 1284.95 455.88 1289.4 Q455.88 1293.85 457.009 1296.07 Q458.152 1298.29 460.409 1298.29 Q462.68 1298.29 463.809 1296.07 Q464.952 1293.85 464.952 1289.4 Q464.952 1284.95 463.809 1282.73 Q462.68 1280.51 460.409 1280.51 M460.409 1278.19 Q464.04 1278.19 465.95 1281.07 Q467.874 1283.94 467.874 1289.4 Q467.874 1294.86 465.95 1297.74 Q464.04 1300.6 460.409 1300.6 Q456.777 1300.6 454.853 1297.74 Q452.944 1294.86 452.944 1289.4 Q452.944 1283.94 454.853 1281.07 Q456.777 1278.19 460.409 1278.19 Z" fill="#000000" fill-rule="evenodd" fill-opacity="1" /><path clip-path="url(#clip960)" d="M479.26 1280.51 Q477.003 1280.51 475.86 1282.73 Q474.732 1284.95 474.732 1289.4 Q474.732 1293.85 475.86 1296.07 Q477.003 1298.29 479.26 1298.29 Q481.531 1298.29 482.66 1296.07 Q483.803 1293.85 483.803 1289.4 Q483.803 1284.95 482.66 1282.73 Q481.531 1280.51 479.26 1280.51 M479.26 1278.19 Q482.891 1278.19 484.801 1281.07 Q486.725 1283.94 486.725 1289.4 Q486.725 1294.86 484.801 1297.74 Q482.891 1300.6 479.26 1300.6 Q475.629 1300.6 473.704 1297.74 Q471.795 1294.86 471.795 1289.4 Q471.795 1283.94 473.704 1281.07 Q475.629 1278.19 479.26 1278.19 Z" fill="#000000" fill-rule="evenodd" fill-opacity="1" /><path clip-path="url(#clip960)" d="M498.111 1280.51 Q495.854 1280.51 494.711 1282.73 Q493.583 1284.95 493.583 1289.4 Q493.583 1293.85 494.711 1296.07 Q495.854 1298.29 498.111 1298.29 Q500.382 1298.29 501.511 1296.07 Q502.654 1293.85 502.654 1289.4 Q502.654 1284.95 501.511 1282.73 Q500.382 1280.51 498.111 1280.51 M498.111 1278.19 Q501.742 1278.19 503.652 1281.07 Q505.576 1283.94 505.576 1289.4 Q505.576 1294.86 503.652 1297.74 Q501.742 1300.6 498.111 1300.6 Q494.48 1300.6 492.556 1297.74 Q490.646 1294.86 490.646 1289.4 Q490.646 1283.94 492.556 1281.07 Q494.48 1278.19 498.111 1278.19 Z" fill="#000000" fill-rule="evenodd" fill-opacity="1" /><path clip-path="url(#clip960)" d="M511.219 1297.72 L515.993 1297.72 L515.993 1281.24 L510.799 1282.29 L510.799 1279.62 L515.964 1278.58 L518.886 1278.58 L518.886 1297.72 L523.661 1297.72 L523.661 1300.18 L511.219 1300.18 L511.219 1297.72 Z" fill="#000000" fill-rule="evenodd" fill-opacity="1" /><path clip-path="url(#clip960)" d="M906.703 1297.72 L911.478 1297.72 L911.478 1281.24 L906.284 1282.29 L906.284 1279.62 L911.449 1278.58 L914.371 1278.58 L914.371 1297.72 L919.145 1297.72 L919.145 1300.18 L906.703 1300.18 L906.703 1297.72 Z" fill="#000000" fill-rule="evenodd" fill-opacity="1" /><path clip-path="url(#clip960)" d="M931.298 1280.51 Q929.041 1280.51 927.898 1282.73 Q926.77 1284.95 926.77 1289.4 Q926.77 1293.85 927.898 1296.07 Q929.041 1298.29 931.298 1298.29 Q933.57 1298.29 934.698 1296.07 Q935.841 1293.85 935.841 1289.4 Q935.841 1284.95 934.698 1282.73 Q933.57 1280.51 931.298 1280.51 M931.298 1278.19 Q934.929 1278.19 936.839 1281.07 Q938.763 1283.94 938.763 1289.4 Q938.763 1294.86 936.839 1297.74 Q934.929 1300.6 931.298 1300.6 Q927.667 1300.6 925.743 1297.74 Q923.833 1294.86 923.833 1289.4 Q923.833 1283.94 925.743 1281.07 Q927.667 1278.19 931.298 1278.19 Z" fill="#000000" fill-rule="evenodd" fill-opacity="1" /><path clip-path="url(#clip960)" d="M950.149 1280.51 Q947.892 1280.51 946.749 1282.73 Q945.621 1284.95 945.621 1289.4 Q945.621 1293.85 946.749 1296.07 Q947.892 1298.29 950.149 1298.29 Q952.421 1298.29 953.549 1296.07 Q954.692 1293.85 954.692 1289.4 Q954.692 1284.95 953.549 1282.73 Q952.421 1280.51 950.149 1280.51 M950.149 1278.19 Q953.781 1278.19 955.69 1281.07 Q957.615 1283.94 957.615 1289.4 Q957.615 1294.86 955.69 1297.74 Q953.781 1300.6 950.149 1300.6 Q946.518 1300.6 944.594 1297.74 Q942.684 1294.86 942.684 1289.4 Q942.684 1283.94 944.594 1281.07 Q946.518 1278.19 950.149 1278.19 Z" fill="#000000" fill-rule="evenodd" fill-opacity="1" /><path clip-path="url(#clip960)" d="M969 1280.51 Q966.744 1280.51 965.601 1282.73 Q964.472 1284.95 964.472 1289.4 Q964.472 1293.85 965.601 1296.07 Q966.744 1298.29 969 1298.29 Q971.272 1298.29 972.4 1296.07 Q973.543 1293.85 973.543 1289.4 Q973.543 1284.95 972.4 1282.73 Q971.272 1280.51 969 1280.51 M969 1278.19 Q972.632 1278.19 974.542 1281.07 Q976.466 1283.94 976.466 1289.4 Q976.466 1294.86 974.542 1297.74 Q972.632 1300.6 969 1300.6 Q965.369 1300.6 963.445 1297.74 Q961.535 1294.86 961.535 1289.4 Q961.535 1283.94 963.445 1281.07 Q965.369 1278.19 969 1278.19 Z" fill="#000000" fill-rule="evenodd" fill-opacity="1" /><path clip-path="url(#clip960)" d="M982.108 1297.72 L986.882 1297.72 L986.882 1281.24 L981.688 1282.29 L981.688 1279.62 L986.853 1278.58 L989.776 1278.58 L989.776 1297.72 L994.55 1297.72 L994.55 1300.18 L982.108 1300.18 L982.108 1297.72 Z" fill="#000000" fill-rule="evenodd" fill-opacity="1" /><path clip-path="url(#clip960)" d="M1000.96 1297.72 L1005.73 1297.72 L1005.73 1281.24 L1000.54 1282.29 L1000.54 1279.62 L1005.7 1278.58 L1008.63 1278.58 L1008.63 1297.72 L1013.4 1297.72 L1013.4 1300.18 L1000.96 1300.18 L1000.96 1297.72 Z" fill="#000000" fill-rule="evenodd" fill-opacity="1" /><path clip-path="url(#clip960)" d="M1405.87 1297.72 L1410.64 1297.72 L1410.64 1281.24 L1405.45 1282.29 L1405.45 1279.62 L1410.61 1278.58 L1413.54 1278.58 L1413.54 1297.72 L1418.31 1297.72 L1418.31 1300.18 L1405.87 1300.18 L1405.87 1297.72 Z" fill="#000000" fill-rule="evenodd" fill-opacity="1" /><path clip-path="url(#clip960)" d="M1430.46 1280.51 Q1428.21 1280.51 1427.06 1282.73 Q1425.94 1284.95 1425.94 1289.4 Q1425.94 1293.85 1427.06 1296.07 Q1428.21 1298.29 1430.46 1298.29 Q1432.74 1298.29 1433.86 1296.07 Q1435.01 1293.85 1435.01 1289.4 Q1435.01 1284.95 1433.86 1282.73 Q1432.74 1280.51 1430.46 1280.51 M1430.46 1278.19 Q1434.1 1278.19 1436.01 1281.07 Q1437.93 1283.94 1437.93 1289.4 Q1437.93 1294.86 1436.01 1297.74 Q1434.1 1300.6 1430.46 1300.6 Q1426.83 1300.6 1424.91 1297.74 Q1423 1294.86 1423 1289.4 Q1423 1283.94 1424.91 1281.07 Q1426.83 1278.19 1430.46 1278.19 Z" fill="#000000" fill-rule="evenodd" fill-opacity="1" /><path clip-path="url(#clip960)" d="M1449.32 1280.51 Q1447.06 1280.51 1445.92 1282.73 Q1444.79 1284.95 1444.79 1289.4 Q1444.79 1293.85 1445.92 1296.07 Q1447.06 1298.29 1449.32 1298.29 Q1451.59 1298.29 1452.72 1296.07 Q1453.86 1293.85 1453.86 1289.4 Q1453.86 1284.95 1452.72 1282.73 Q1451.59 1280.51 1449.32 1280.51 M1449.32 1278.19 Q1452.95 1278.19 1454.86 1281.07 Q1456.78 1283.94 1456.78 1289.4 Q1456.78 1294.86 1454.86 1297.74 Q1452.95 1300.6 1449.32 1300.6 Q1445.68 1300.6 1443.76 1297.74 Q1441.85 1294.86 1441.85 1289.4 Q1441.85 1283.94 1443.76 1281.07 Q1445.68 1278.19 1449.32 1278.19 Z" fill="#000000" fill-rule="evenodd" fill-opacity="1" /><path clip-path="url(#clip960)" d="M1462.42 1297.72 L1467.2 1297.72 L1467.2 1281.24 L1462 1282.29 L1462 1279.62 L1467.17 1278.58 L1470.09 1278.58 L1470.09 1297.72 L1474.87 1297.72 L1474.87 1300.18 L1462.42 1300.18 L1462.42 1297.72 Z" fill="#000000" fill-rule="evenodd" fill-opacity="1" /><path clip-path="url(#clip960)" d="M1867.33 1297.72 L1872.11 1297.72 L1872.11 1281.24 L1866.91 1282.29 L1866.91 1279.62 L1872.08 1278.58 L1875 1278.58 L1875 1297.72 L1879.78 1297.72 L1879.78 1300.18 L1867.33 1300.18 L1867.33 1297.72 Z" fill="#000000" fill-rule="evenodd" fill-opacity="1" /><path clip-path="url(#clip960)" d="M1891.93 1280.51 Q1889.67 1280.51 1888.53 1282.73 Q1887.4 1284.95 1887.4 1289.4 Q1887.4 1293.85 1888.53 1296.07 Q1889.67 1298.29 1891.93 1298.29 Q1894.2 1298.29 1895.33 1296.07 Q1896.47 1293.85 1896.47 1289.4 Q1896.47 1284.95 1895.33 1282.73 Q1894.2 1280.51 1891.93 1280.51 M1891.93 1278.19 Q1895.56 1278.19 1897.47 1281.07 Q1899.39 1283.94 1899.39 1289.4 Q1899.39 1294.86 1897.47 1297.74 Q1895.56 1300.6 1891.93 1300.6 Q1888.3 1300.6 1886.37 1297.74 Q1884.46 1294.86 1884.46 1289.4 Q1884.46 1283.94 1886.37 1281.07 Q1888.3 1278.19 1891.93 1278.19 Z" fill="#000000" fill-rule="evenodd" fill-opacity="1" /><path clip-path="url(#clip960)" d="M1910.78 1280.51 Q1908.52 1280.51 1907.38 1282.73 Q1906.25 1284.95 1906.25 1289.4 Q1906.25 1293.85 1907.38 1296.07 Q1908.52 1298.29 1910.78 1298.29 Q1913.05 1298.29 1914.18 1296.07 Q1915.32 1293.85 1915.32 1289.4 Q1915.32 1284.95 1914.18 1282.73 Q1913.05 1280.51 1910.78 1280.51 M1910.78 1278.19 Q1914.41 1278.19 1916.32 1281.07 Q1918.24 1283.94 1918.24 1289.4 Q1918.24 1294.86 1916.32 1297.74 Q1914.41 1300.6 1910.78 1300.6 Q1907.15 1300.6 1905.22 1297.74 Q1903.31 1294.86 1903.31 1289.4 Q1903.31 1283.94 1905.22 1281.07 Q1907.15 1278.19 1910.78 1278.19 Z" fill="#000000" fill-rule="evenodd" fill-opacity="1" /><path clip-path="url(#clip960)" d="M1923.89 1297.72 L1928.66 1297.72 L1928.66 1281.24 L1923.47 1282.29 L1923.47 1279.62 L1928.63 1278.58 L1931.55 1278.58 L1931.55 1297.72 L1936.33 1297.72 L1936.33 1300.18 L1923.89 1300.18 L1923.89 1297.72 Z" fill="#000000" fill-rule="evenodd" fill-opacity="1" /><path clip-path="url(#clip960)" d="M1948.48 1280.51 Q1946.22 1280.51 1945.08 1282.73 Q1943.95 1284.95 1943.95 1289.4 Q1943.95 1293.85 1945.08 1296.07 Q1946.22 1298.29 1948.48 1298.29 Q1950.75 1298.29 1951.88 1296.07 Q1953.02 1293.85 1953.02 1289.4 Q1953.02 1284.95 1951.88 1282.73 Q1950.75 1280.51 1948.48 1280.51 M1948.48 1278.19 Q1952.11 1278.19 1954.02 1281.07 Q1955.95 1283.94 1955.95 1289.4 Q1955.95 1294.86 1954.02 1297.74 Q1952.11 1300.6 1948.48 1300.6 Q1944.85 1300.6 1942.93 1297.74 Q1941.02 1294.86 1941.02 1289.4 Q1941.02 1283.94 1942.93 1281.07 Q1944.85 1278.19 1948.48 1278.19 Z" fill="#000000" fill-rule="evenodd" fill-opacity="1" /><path clip-path="url(#clip960)" d="M1961.59 1297.72 L1966.36 1297.72 L1966.36 1281.24 L1961.17 1282.29 L1961.17 1279.62 L1966.33 1278.58 L1969.26 1278.58 L1969.26 1297.72 L1974.03 1297.72 L1974.03 1300.18 L1961.59 1300.18 L1961.59 1297.72 Z" fill="#000000" fill-rule="evenodd" fill-opacity="1" /><path clip-path="url(#clip960)" d="M2109.1 1254.36 Q2106.85 1254.36 2105.7 1256.59 Q2104.58 1258.8 2104.58 1263.26 Q2104.58 1267.7 2105.7 1269.93 Q2106.85 1272.14 2109.1 1272.14 Q2111.38 1272.14 2112.5 1269.93 Q2113.65 1267.7 2113.65 1263.26 Q2113.65 1258.8 2112.5 1256.59 Q2111.38 1254.36 2109.1 1254.36 M2109.1 1252.04 Q2112.74 1252.04 2114.64 1254.92 Q2116.57 1257.79 2116.57 1263.26 Q2116.57 1268.71 2114.64 1271.59 Q2112.74 1274.45 2109.1 1274.45 Q2105.47 1274.45 2103.55 1271.59 Q2101.64 1268.71 2101.64 1263.26 Q2101.64 1257.79 2103.55 1254.92 Q2105.47 1252.04 2109.1 1252.04 Z" fill="#000000" fill-rule="evenodd" fill-opacity="1" /><path clip-path="url(#clip960)" d="M2121.71 1270.36 L2124.76 1270.36 L2124.76 1274.03 L2121.71 1274.03 L2121.71 1270.36 Z" fill="#000000" fill-rule="evenodd" fill-opacity="1" /><path clip-path="url(#clip960)" d="M2131.15 1252.43 L2142.63 1252.43 L2142.63 1254.89 L2133.83 1254.89 L2133.83 1260.19 Q2134.47 1259.97 2135.1 1259.87 Q2135.74 1259.75 2136.38 1259.75 Q2139.99 1259.75 2142.1 1261.74 Q2144.22 1263.72 2144.22 1267.1 Q2144.22 1270.59 2142.05 1272.53 Q2139.88 1274.45 2135.93 1274.45 Q2134.57 1274.45 2133.15 1274.22 Q2131.75 1273.99 2130.24 1273.53 L2130.24 1270.59 Q2131.54 1271.3 2132.93 1271.65 Q2134.32 1271.99 2135.87 1271.99 Q2138.37 1271.99 2139.83 1270.68 Q2141.29 1269.36 2141.29 1267.1 Q2141.29 1264.85 2139.83 1263.53 Q2138.37 1262.21 2135.87 1262.21 Q2134.7 1262.21 2133.53 1262.47 Q2132.37 1262.74 2131.15 1263.29 L2131.15 1252.43 Z" fill="#000000" fill-rule="evenodd" fill-opacity="1" /><path clip-path="url(#clip960)" d="M2150.06 1273.59 L2150.06 1270.92 Q2151.16 1271.44 2152.29 1271.72 Q2153.42 1271.99 2154.5 1271.99 Q2157.4 1271.99 2158.92 1270.06 Q2160.45 1268.1 2160.67 1264.14 Q2159.83 1265.38 2158.54 1266.05 Q2157.25 1266.71 2155.69 1266.71 Q2152.45 1266.71 2150.55 1264.76 Q2148.67 1262.79 2148.67 1259.39 Q2148.67 1256.07 2150.64 1254.05 Q2152.61 1252.04 2155.88 1252.04 Q2159.62 1252.04 2161.59 1254.92 Q2163.57 1257.79 2163.57 1263.26 Q2163.57 1268.36 2161.14 1271.42 Q2158.73 1274.45 2154.63 1274.45 Q2153.53 1274.45 2152.41 1274.24 Q2151.28 1274.02 2150.06 1273.59 M2155.88 1264.43 Q2157.84 1264.43 2158.99 1263.08 Q2160.15 1261.74 2160.15 1259.39 Q2160.15 1257.06 2158.99 1255.72 Q2157.84 1254.36 2155.88 1254.36 Q2153.91 1254.36 2152.75 1255.72 Q2151.61 1257.06 2151.61 1259.39 Q2151.61 1261.74 2152.75 1263.08 Q2153.91 1264.43 2155.88 1264.43 Z" fill="#000000" fill-rule="evenodd" fill-opacity="1" /><path clip-path="url(#clip960)" d="M2177.68 1262.39 Q2179.78 1262.84 2180.95 1264.25 Q2182.14 1265.67 2182.14 1267.76 Q2182.14 1270.95 2179.94 1272.7 Q2177.74 1274.45 2173.69 1274.45 Q2172.33 1274.45 2170.88 1274.18 Q2169.45 1273.92 2167.91 1273.38 L2167.91 1270.56 Q2169.13 1271.27 2170.58 1271.63 Q2172.02 1271.99 2173.6 1271.99 Q2176.35 1271.99 2177.78 1270.91 Q2179.23 1269.82 2179.23 1267.76 Q2179.23 1265.85 2177.88 1264.78 Q2176.55 1263.69 2174.16 1263.69 L2171.65 1263.69 L2171.65 1261.29 L2174.28 1261.29 Q2176.44 1261.29 2177.58 1260.43 Q2178.72 1259.57 2178.72 1257.95 Q2178.72 1256.28 2177.54 1255.4 Q2176.36 1254.5 2174.16 1254.5 Q2172.96 1254.5 2171.59 1254.76 Q2170.21 1255.02 2168.57 1255.57 L2168.57 1252.97 Q2170.23 1252.51 2171.68 1252.28 Q2173.14 1252.04 2174.42 1252.04 Q2177.75 1252.04 2179.69 1253.56 Q2181.63 1255.07 2181.63 1257.64 Q2181.63 1259.44 2180.6 1260.68 Q2179.58 1261.91 2177.68 1262.39 Z" fill="#000000" fill-rule="evenodd" fill-opacity="1" /><path clip-path="url(#clip960)" d="M2186.94 1252.43 L2200.83 1252.43 L2200.83 1253.68 L2192.99 1274.03 L2189.93 1274.03 L2197.31 1254.89 L2186.94 1254.89 L2186.94 1252.43 Z" fill="#000000" fill-rule="evenodd" fill-opacity="1" /><path clip-path="url(#clip960)" d="M2206.56 1252.43 L2218.03 1252.43 L2218.03 1254.89 L2209.23 1254.89 L2209.23 1260.19 Q2209.87 1259.97 2210.51 1259.87 Q2211.14 1259.75 2211.78 1259.75 Q2215.4 1259.75 2217.51 1261.74 Q2219.62 1263.72 2219.62 1267.1 Q2219.62 1270.59 2217.45 1272.53 Q2215.28 1274.45 2211.33 1274.45 Q2209.97 1274.45 2208.55 1274.22 Q2207.15 1273.99 2205.65 1273.53 L2205.65 1270.59 Q2206.95 1271.3 2208.34 1271.65 Q2209.73 1271.99 2211.27 1271.99 Q2213.78 1271.99 2215.24 1270.68 Q2216.7 1269.36 2216.7 1267.1 Q2216.7 1264.85 2215.24 1263.53 Q2213.78 1262.21 2211.27 1262.21 Q2210.1 1262.21 2208.93 1262.47 Q2207.77 1262.74 2206.56 1263.29 L2206.56 1252.43 Z" fill="#000000" fill-rule="evenodd" fill-opacity="1" /><path clip-path="url(#clip960)" d="M2216.13 1399.12 Q2213.87 1399.12 2212.73 1401.35 Q2211.6 1403.56 2211.6 1408.02 Q2211.6 1412.46 2212.73 1414.69 Q2213.87 1416.9 2216.13 1416.9 Q2218.4 1416.9 2219.53 1414.69 Q2220.67 1412.46 2220.67 1408.02 Q2220.67 1403.56 2219.53 1401.35 Q2218.4 1399.12 2216.13 1399.12 M2216.13 1396.8 Q2219.76 1396.8 2221.67 1399.68 Q2223.59 1402.55 2223.59 1408.02 Q2223.59 1413.47 2221.67 1416.35 Q2219.76 1419.21 2216.13 1419.21 Q2212.5 1419.21 2210.57 1416.35 Q2208.66 1413.47 2208.66 1408.02 Q2208.66 1402.55 2210.57 1399.68 Q2212.5 1396.8 2216.13 1396.8 Z" fill="#000000" fill-rule="evenodd" fill-opacity="1" /><path clip-path="url(#clip960)" d="M2229.23 1416.34 L2234.01 1416.34 L2234.01 1399.86 L2228.81 1400.9 L2228.81 1398.24 L2233.98 1397.2 L2236.9 1397.2 L2236.9 1416.34 L2241.68 1416.34 L2241.68 1418.8 L2229.23 1418.8 L2229.23 1416.34 Z" fill="#000000" fill-rule="evenodd" fill-opacity="1" /><path clip-path="url(#clip960)" d="M2248.09 1416.34 L2252.86 1416.34 L2252.86 1399.86 L2247.67 1400.9 L2247.67 1398.24 L2252.83 1397.2 L2255.75 1397.2 L2255.75 1416.34 L2260.53 1416.34 L2260.53 1418.8 L2248.09 1418.8 L2248.09 1416.34 Z" fill="#000000" fill-rule="evenodd" fill-opacity="1" /></svg>
